<?xml version="1.0" encoding="utf-8"?>
<!-- Generator: Adobe Illustrator 26.2.1, SVG Export Plug-In . SVG Version: 6.00 Build 0)  -->
<svg version="1.1" xmlns="http://www.w3.org/2000/svg" xmlns:xlink="http://www.w3.org/1999/xlink" x="0px" y="0px"
	 viewBox="0 0 720 720" style="enable-background:new 0 0 720 720;" xml:space="preserve">
<style type="text/css">
	.st0{display:none;}
	.st1{display:inline;fill:none;stroke:#000000;stroke-miterlimit:10;}
	.st2{display:inline;}
	.st3{fill:none;stroke:#000000;stroke-miterlimit:10;}
	.st4{stroke:#000000;stroke-width:1.1684;stroke-miterlimit:10;}
	.st5{stroke:#000000;stroke-width:1.2468;stroke-miterlimit:10;}
	.st6{display:inline;stroke:#000000;stroke-width:1.3435;stroke-miterlimit:10;}
	.st7{display:inline;fill:none;stroke:#000000;stroke-width:8.0613;stroke-miterlimit:10;}
	.st8{display:inline;stroke:#000000;stroke-width:1.5254;stroke-miterlimit:10;}
	.st9{display:inline;fill:none;stroke:#000000;stroke-width:7.6269;stroke-miterlimit:10;}
	.st10{display:inline;stroke:#000000;stroke-width:1.3232;stroke-miterlimit:10;}
	.st11{display:inline;stroke:#000000;stroke-width:1.2679;stroke-miterlimit:10;}
	.st12{display:inline;fill:none;stroke:#000000;stroke-width:6.3393;stroke-miterlimit:10;}
	.st13{stroke:#000000;stroke-width:1.6734;stroke-miterlimit:10;}
	.st14{display:inline;stroke:#000000;stroke-width:1.0819;stroke-miterlimit:10;}
</style>
<g id="Sun" class="st0">
	<circle class="st1" cx="364.63" cy="352.33" r="216"/>
	<path class="st1" d="M361.39,23.31l-29.1,66.63c-1.02,2.34,0.69,4.95,3.24,4.95h58.2c2.55,0,4.26-2.61,3.24-4.95l-29.1-66.63
		C366.63,20.48,362.62,20.48,361.39,23.31z"/>
	<path class="st1" d="M367.87,681.35l29.1-66.63c1.02-2.34-0.69-4.95-3.24-4.95h-58.2c-2.55,0-4.26,2.61-3.24,4.95l29.1,66.63
		C362.62,684.17,366.63,684.17,367.87,681.35z"/>
	<path class="st1" d="M30.89,363.24l66.63,29.1c2.34,1.02,4.95-0.69,4.95-3.24v-58.2c0-2.55-2.61-4.26-4.95-3.24l-66.63,29.1
		C28.07,358,28.07,362,30.89,363.24z"/>
	<path class="st1" d="M698.36,349.09l-66.63-29.1c-2.34-1.02-4.95,0.69-4.95,3.24v58.2c0,2.55,2.61,4.26,4.95,3.24l66.63-29.1
		C701.18,354.33,701.18,350.32,698.36,349.09z"/>
	<path class="st1" d="M594.99,117.38l-67.69,26.54c-2.37,0.93-3.01,3.99-1.21,5.79l41.15,41.15c1.8,1.8,4.86,1.16,5.79-1.21
		l26.54-67.69C600.7,119.09,597.86,116.26,594.99,117.38z"/>
	<path class="st1" d="M134.26,587.27l67.69-26.54c2.37-0.93,3.01-3.99,1.21-5.79l-41.15-41.15c-1.8-1.8-4.86-1.16-5.79,1.21
		l-26.54,67.69C128.56,585.56,131.39,588.4,134.26,587.27z"/>
	<path class="st1" d="M120.93,124.06l26.54,67.69c0.93,2.37,3.99,3.01,5.79,1.21l41.15-41.15c1.8-1.8,1.16-4.86-1.21-5.79
		l-67.69-26.54C122.64,118.35,119.8,121.19,120.93,124.06z"/>
	<path class="st1" d="M602.9,586.02l-26.54-67.69c-0.93-2.37-3.99-3.01-5.79-1.21l-41.15,41.15c-1.8,1.8-1.16,4.86,1.21,5.79
		l67.69,26.54C601.19,591.73,604.03,588.89,602.9,586.02z"/>
	<path class="st1" d="M273.31,191.5c5.81-0.73,13.18-0.65,15.69,4.68c2.17,4.6-1.39,10.31-6.11,12.11s-10.01,0.73-14.85-0.72
		c-4.84-1.44-9.74-3.26-14.78-2.9c-8.44,0.6-15.18,7.07-21,13.26c-11.22,11.94-22.12,24.52-29.29,39.31
		c-1.61,3.32-3.05,7.01-2.28,10.62c1.29,6.01,8.23,9.11,14.32,8.94s11.9-2.6,17.95-3.39s13.15,0.68,16.15,6.03
		c3.89,6.94-1.92,16.06-9.37,18.71c-7.45,2.65-15.63,0.92-23.42-0.36c-7.8-1.29-16.4-1.93-23.01,2.43
		c-8.48,5.61-10.43,17.13-11.2,27.32c-0.74,9.72-1.13,19.47-1.15,29.22c-0.05,17.39,1.18,35.38,9.08,50.84
		c5.5,10.76,14.14,19.86,24.56,25.86c5.33,3.07,11.28,5.37,17.41,5.28c6.33-0.09,12.33-2.71,18.13-5.28
		c10.97-4.86,22.14-9.84,31.1-17.86c8.96-8.02,15.53-19.72,14.45-31.75c-1.29-14.37-12.99-26.99-11.32-41.32
		c1.67-14.39,17.07-23.99,31.44-23.82c14.36,0.17,27.58,7.64,39.53,15.69c11.43,7.7,22.61,16.39,30.02,28.07
		c7.41,11.68,10.51,26.92,4.98,39.61c-2.16,4.96-5.74,9.5-10.65,11.68c-5.97,2.65-12.82,1.48-19.29,0.69
		c-9.29-1.14-19.52-1.14-26.98,4.55c-3.82,2.91-6.52,7.05-9.95,10.42c-7.68,7.55-18.4,10.8-28.29,14.99
		c-9.89,4.19-20.05,10.44-23.54,20.67c-2.81,8.26-0.61,17.45,3.08,25.35c11.94,25.58,39.48,42.15,67.48,43.27
		c12.28,0.49,25.03-1.88,35.11-8.97s16.96-19.48,15.42-31.78c-0.71-5.63-3.06-10.9-4.53-16.38c-2.04-7.61-2.4-15.67-5.18-23.05
		c-4.61-12.26-16.17-21.58-29.04-23.42c-3.26-0.46-6.83-0.41-9.5,1.53c-2.07,1.5-3.28,3.89-4.87,5.91
		c-8.81,11.16-27.55,9.19-36.84,19.94c-4.84,5.6-6.01,13.83-4.1,21.01c1.91,7.18,6.56,13.37,12.09,18.28
		c10.22,9.06,23.78,14.18,37.38,14.13c4.48-0.02,9.15-0.65,12.84-3.2c7.06-4.86,8.29-14.83,7.6-23.42
		c-0.59-7.34-2.09-14.61-4.47-21.58c-1.92-5.63-6.39-12.13-12.1-10.61c-3.14,0.84-5.12,3.89-7.82,5.71
		c-4.06,2.75-9.31,2.51-14.17,3.11c-4.85,0.6-10.33,2.91-11.4,7.72c-0.74,3.33,0.94,6.68,2.78,9.54c2.96,4.61,6.66,8.99,11.59,11.32
		c4.94,2.33,11.33,2.15,15.32-1.59c4.94-4.64,4.23-13.62-0.83-18.12s-16.36-7.17-18.86-0.84c-1.14,2.89,1.64,6.28,4.09,8.16
		s6.93,1.15,7.49-1.91"/>
	<path class="st1" d="M207.61,445.29c4.91,10.29,19.14,12.12,29.9,8.56c10.76-3.56,20.03-10.88,30.86-14.22
		c4.65-1.43,9.53-2.11,14.06-3.9c4.69-1.85,8.85-4.85,12.67-8.16c11.49-9.97,20.57-24.42,19.23-39.65
		c-0.74-8.46-4.6-16.35-5.77-24.75c-1.17-8.41,1.55-18.56,9.44-21.52c8.12-3.05,16.81,3.14,22.02,10.12c2.45,3.28,4.64,6.9,8,9.22
		c5.17,3.56,11.98,3.31,17.91,5.36c5.73,1.98,10.82,6.53,12.29,12.45c1.47,5.92-1.47,12.99-7.15,15.09
		c-2.81,1.04-5.96,0.86-8.74,1.98c-3.33,1.34-5.94,4.47-9.5,4.88c-2.84,0.32-5.8-1.42-6.9-4.08c-1.11-2.66-0.27-6.01,1.95-7.83
		c4.18-3.42,12.44-2.16,13.51-7.47c0.67-3.32-2.7-6.17-6-6.83c-6.7-1.34-14,3.7-15.17,10.49c-0.56,3.26,0.12,6.59,0.05,9.9
		c-0.1,4.31-1.66,8.75-4.93,11.53s-8.41,3.45-11.87,0.92c-5.93-4.34-3.57-13.96,0.94-19.78c4.51-5.83,10.82-11.05,11.63-18.4
		c0.72-6.51-3.91-13.18-10.22-14.73c-2.8-0.69-6.35-0.09-7.58,2.54c-1.69,3.59,2.1,7.46,2.14,11.44c0.02,1.91-0.85,3.72-1.02,5.62
		s0.8,4.22,2.68,4.37c0.63,0.05,1.26-0.16,1.83-0.42c5.8-2.68,6.78-12.12,1.64-15.94"/>
	<path class="st1" d="M371,424.09c5.18,5.61,14.73,1.52,19.72-4.27c4.99-5.79,8.89-13.41,16.13-15.77
		c5.92-1.93,12.99,0.78,16.15,6.19c3.15,5.41,2.07,12.96-2.48,17.25c-5.8,5.45-15.26,5.16-21.17,10.5
		c-4.4,3.97-5.91,10.53-4.84,16.38c1.07,5.86,4.41,11.08,8.41,15.46c2.67,2.92,5.67,5.57,7.89,8.85c4.66,6.9,5.22,16.4,1.39,23.81
		c-3.48,6.73-10.17,11.69-12.21,19c-1.01,3.62-0.52,7.99,2.35,10.38c1.5,1.24,3.46,1.8,5.39,1.96c10.09,0.87,18.36-7.49,27.75-11.32
		c3.79-1.54,7.86-2.37,11.5-4.22c8.73-4.45,13.87-15.12,11.92-24.79c-2.05-10.2-10.95-19.15-9.03-29.37
		c1.05-5.57,5.62-10.3,11.11-11.5c5.5-1.2,11.59,1.21,14.82,5.85c4.67,6.71,4.56,17.95,12.38,20.19c3.69,1.06,7.6-0.67,10.72-2.92
		c5.35-3.86,9.54-9.54,10.98-16.02c1.43-6.48-0.12-13.72-4.6-18.57c-3.35-3.63-7.98-5.71-12.29-8.1
		c-6.55-3.64-12.79-8.38-16.46-14.96s-4.28-15.27-0.02-21.47c5.82-8.45,20.2-8.57,26.15-0.21c2.48,3.48,3.53,7.86,6.2,11.2
		c3.55,4.44,9.93,6.33,15.31,4.55c5.37-1.79,9.38-7.14,9.62-12.84c0.12-2.98-0.68-6.04,0.12-8.92c1.9-6.83,11.79-9.46,12.57-16.51
		c0.48-4.37-2.95-8.46-2.48-12.83c0.29-2.67,1.97-4.93,3.26-7.28c4.45-8.12,4.3-17.9,4.04-27.17"/>
	<path class="st1" d="M215.51,460.19c3.33,5.91,10.17,9.39,16.91,9.41c6.74,0.02,13.28-3.12,18.17-7.8c2.52-2.41,5.7-5.49,8.88-4.1
		c2.19,0.95,3.06,3.69,2.96,6.09c-0.1,2.41-0.9,4.75-0.93,7.15c-0.04,3.01,1.11,5.88,2.24,8.66c2.95,7.26,5.9,14.52,8.85,21.79
		c1.41,3.46,5.77,11.21,2.08,10.85c-23.05-2.27-31.65-10.51-42.82-30.32c-1.85-3.28,7.68-0.69,10.52-3.13
		c1.51-1.3,2.02-3.58,3.71-4.63c1.69-1.05,4.01-0.4,5.47,0.96c1.46,1.37,2.25,3.28,3.01,5.14c1.92,4.72,3.84,9.43,5.76,14.15
		c0.39,0.97,0.73,2.22-0.02,2.94c-0.38,0.36-0.94,0.46-1.46,0.5c-4.21,0.35-8.53-1.63-11.04-5.05c-2.51-3.42-5.75-11.67-1.55-12.13
		c3.79-0.41,4.26,6.37,6.4,9.56"/>
	<path class="st1" d="M201.03,404.99c-10.71-19.58-11.09-43.1-9.85-65.42c0.33-5.88,0.78-11.91,3.24-17.26
		c2.45-5.35,7.33-9.95,13.16-10.37c2.8-0.2,5.57,0.55,8.34,1.01c10.19,1.68,21.01-0.85,29.43-6.89c4.19-3.01,7.81-6.84,12.28-9.41
		c4.47-2.57,10.3-3.69,14.67-0.94c5.51,3.46,6.28,11.41,4.53,17.72s-5.35,12.03-6.55,18.47c-2.43,13.11,5.43,25.65,8.65,38.58
		c2.97,11.96,1.67,25.4-5.49,35.4c-4.6,6.43-11.26,11.04-18.05,15.03c-6.78,3.98-14.49,7.58-22.2,6.11
		c-3.57-0.68-6.85-2.41-9.93-4.35c-4.1-2.58-8.1-5.75-10.16-10.16s-1.64-10.32,2.1-13.42c5.43-4.5,13.46-0.92,20.49-1.06
		c7.46-0.14,14.58-5.27,17.15-12.34c1.76-4.85,2.2-11.24,6.94-13.18c3.98-1.63,8.68,1.59,9.93,5.73c1.25,4.14-0.13,8.65-2.21,12.43
		c-4.5,8.2-12.43,14.41-21.42,16.78c-2.06,0.54-4.23,0.89-6.31,0.42c-2.19-0.5-4.07-1.87-6.15-2.72c-3.6-1.48-9-2.75-11.32,0.4
		c-2.25,3.06,2.67,7.26,6.32,8.25c3.65,0.99,7.51,0.13,11.2-0.73"/>
</g>
<g id="Moon" class="st0">
	<path class="st1" d="M351.99,514.48c0.74-3.77-4.35-10.15-6.42-7c-0.63,0.97,0.37,2.32,0.55,3.48c0.73,4.58,3.03,10.46,7.33,9.72
		c4.1-0.7,4.8-6.96,3.01-10.95c-1.74-3.9-5.2-7.24-9.25-7.39s-8.12,3.97-7.19,8.18c0.94,4.27,6.19,7.93,4.14,11.73
		c-1.69,3.13-6.39,1.68-8.62-1.04c-3.33-4.07-4.38-10.11-2.63-15.18s6.22-8.95,11.24-9.74c4.6-0.73,9.25,0.98,13.35,3.32
		c2.3,1.31,4.54,2.86,6.1,5.08c4.48,6.37,1.51,16.17-4.45,20.95s-13.86,5.71-21.32,5.81c-19.08,0.26-38.53-3.96-54.83-14.54
		c-4.67-3.03-9.42-7.19-10.12-12.97c-0.81-6.67,4.14-12.58,9.42-16.28c5.28-3.7,11.4-6.4,15.32-11.68
		c4.8-6.46,5.25-15.82,2.33-23.45c-2.92-7.63-8.78-13.65-15.36-17.96c-11.3-7.4-27.62-9.48-36.71,0.81
		c-4.17,4.73-6.05,11.17-8.68,17.02s-6.72,11.72-12.69,13.01c-3.71,0.8-7.56-0.34-11.01-1.99c-18.71-8.94-27.99-31.05-35.65-51.32
		c-2.99-7.9-5.27-18.67,1.32-23.5c2.22-1.63,5.01-2.1,7.7-2.18c12.38-0.39,23.9,6.31,36.03,9c10.52,2.33,21.81,1.52,31.52-3.38
		c9.71-4.9,17.67-14.11,20.45-25.17c2.15-8.55,1.19-17.77-1.66-26.09c-4.48-13.06-13.98-24.45-26.28-29.11
		c-11.94-4.53-25.3-2.49-37.22,2.12c-9.55,3.69-20.42,8.93-29.23,3.53c-5.86-3.59-8.77-11.17-8.79-18.37
		c-0.02-7.2,2.41-14.13,4.66-20.98c5.68-12.18,9.67-22.11,15.35-34.29c2.7-5.8,5.34-12.6,10.19-19.16c3.76-5.08,7.6-6.8,15.72-13.16
		c2.85-2.23-2.65,7.37-4.61,10.51c-1.71,2.74-3.52,5.4-5.41,8.01c-2.01,2.78-11.7,15.78-10.64,12.46
		c3.27-10.24,9.04-17.99,13.82-22.17"/>
	<g class="st2">
		<g>
			<path class="st3" d="M317.02,342c0-93.63,72.92-170.22,165.06-176.12C446.78,140.77,403.62,126,357,126
				c-119.29,0-216,96.71-216,216s96.71,216,216,216c46.62,0,89.78-14.77,125.08-39.88C389.93,512.22,317.02,435.63,317.02,342z"/>
		</g>
	</g>
	<path class="st1" d="M168.07,308.93c-1.72,18.51-1.84,37.2-0.35,55.73c0.46,5.75,1.14,11.68,3.9,16.65
		c0.59,1.07,1.48,2.19,2.64,2.12c1.06-0.06,1.8-1.08,2.52-1.92c5.74-6.68,16.5-4.78,23.21-10.34c2.36-1.95,4.03-4.7,5.3-7.58
		c2.25-5.11,3.33-11.02,1.93-16.47c-2.07-8.08-9.21-13.72-16.72-16.15c-2.25-0.73-4.61-1.24-6.61-2.56
		c-3.07-2.03-4.9-5.69-7.85-7.92c-0.48-0.36-1.02-0.69-1.6-0.71c-1.83-0.05-2.44,2.58-2.45,4.53c-0.02,15.28,0.22,30.56,0.71,45.83
		c0.03,0.83,0.08,1.74,0.61,2.36c0.93,1.08,2.58,0.58,3.85,0.01c2.27-1.04,4.62-2.14,6.2-4.16c1.58-2.02,2.1-5.24,0.48-7.22
		c-0.65-0.79-1.54-1.29-2.34-1.91c-5.3-4.04-5.57-13.47-0.81-18.21s13.13-4.11,17.59,0.96c4.45,5.07,4.68,13.56,0.9,19.23
		c-1.33,1.99-3.21,3.72-5.47,4.09c-2.26,0.37-4.86-1.04-5.34-3.42c-0.32-1.6,0.31-3.3-0.02-4.9c-0.5-2.45-3-3.84-3.97-6.12
		c-1.23-2.9,0.69-6.65,3.56-7.52c2.88-0.87,6.12,0.87,7.57,3.66s1.26,6.33-0.06,9.19c-0.3,0.65-0.7,1.31-1.33,1.56
		c-1.97,0.79-2.87-2.58-2.57-4.79s-0.62-5.58-2.58-4.77"/>
	<path class="st1" d="M204.6,379.76c6.68-1.74,11.34-8.81,12.18-16.08s-1.54-14.59-5.02-20.92c-1.69-3.07-3.71-6.27-3.5-9.82
		c0.2-3.35,2.38-6.2,4.79-8.37c10.19-9.16,26.54-9.33,36.9-0.38c3.03,2.62,5.54,5.86,7.88,9.19c3.58,5.1,6.87,10.55,8.7,16.62
		c1.83,6.07,2.09,12.86-0.28,18.71c-2.52,6.22-7.82,10.84-13.7,13.43c-5.88,2.59-12.33,3.33-18.69,3.45
		c-3.38,0.07-6.91-0.08-9.87-1.81c-2.96-1.74-5.12-5.53-4.09-8.96c1.06-3.54,4.97-5.24,8.46-5.18s6.84,1.39,10.3,1.83
		c6.14,0.77,12.83-1.68,16.33-7.11c2.87-4.46,3.27-10.36,1.96-15.58c-1.31-5.22-4.17-9.86-7.41-14.02
		c-3.16-4.06-6.83-7.83-11.33-10.03c-4.5-2.2-9.97-2.62-14.33-0.12c-4.36,2.5-7.12,8.3-5.56,13.31c0.67,2.15,2.02,3.98,3,5.99
		c1.78,3.67,2.27,8.03,1.35,12.05c-0.47,2.08-1.28,4.4-0.23,6.22c0.54,0.94,1.49,1.52,2.42,2c8.31,4.28,18.97,2.73,25.9-3.77
		c2.17-2.03,4.01-5.66,2.11-7.98c-1.57-1.92-4.46-1.35-6.75-0.62c-2.75,0.88-5.49,1.76-8.24,2.64c-2.09,0.67-4.31,1.35-6.43,0.76
		c-2.11-0.59-3.95-2.96-3.25-5.17c0.75-2.36,3.66-2.95,5.98-2.62s4.78,1.15,6.91,0.13c1.82-0.87,2.98-3.11,2.69-5.21
		c-0.29-2.11-2-3.9-3.98-4.17c-3.73-0.52-6.89,3.77-10.65,3.41c-3.9-0.37-5.8-5.99-4.05-9.73c1.24-2.65,4.08-4.59,6.8-3.96
		c2.72,0.63,4.58,4.34,3.07,6.83c-1.51,2.49-6.06,1.53-6.13-1.43c0.35-1.06,1.8-1.47,2.6-0.73"/>
	<path class="st1" d="M196.62,282.84c0.9,4.61,1.79,13.5-2.63,13.45c-7.1-0.08-1.26-14.69,1.58-21.63c0.41-1,1.01-2.14,2.02-2.21
		c1.34-0.08,1.99,1.69,2.2,3.1c0.91,6.14,1.15,12.4,0.73,18.6c-0.17,2.51-0.54,5.23-2.22,7c-2.23,2.35-6.18,2.04-8.56-0.12
		c-2.39-2.16-3.37-5.7-3.3-9.04c0.08-3.34,1.08-6.57,2.07-9.74c1.62-5.18,3.24-10.37,4.86-15.55c0.46-1.48,0.96-3.02,1.98-4.14
		c1.03-1.12,2.75-1.68,3.99-0.85c1.25,0.83,1.53,2.61,1.77,4.16c1.2,7.87,4.99,15.79,11.64,19.44c2.96,1.63,6.63,2.59,8.21,5.72
		c1.5,2.96,0.38,6.8-1.8,9.24c-2.18,2.43-5.19,3.77-8.11,5.05c-1.58,0.69-3.16,1.38-4.74,2.07c-5.52,2.41-11.76,4.83-17.25,2.34
		c-5.09-2.3-7.95-8.4-8.22-14.28c-0.28-5.88,1.57-11.62,3.59-17.11c2.28-6.19,4.82-12.26,7.6-18.21c2.53-5.42,5.44-10.77,9.22-14.89
		c2.23-2.43,4.36-4.96,6.53-7.45c2.26-2.57,4.52-5.15,6.54-7.93c3.91-5.39,6.87-11.48,9.89-17.49c1.97-3.93,4.04-7.92,7.14-10.91
		s7.47-4.86,11.51-3.73c2.2,0.61,4.18,2.1,5.47,4.1c0.52,0.81,0.93,1.72,1.08,2.69c0.31,2.09-0.68,4.19-2.04,5.74
		s-3.07,2.67-4.64,3.97c-10.55,8.73-14.16,24.72-25.01,33.03c-1.39,1.06-2.95,2.01-4.66,2.07c-1.71,0.06-3.55-1.01-3.94-2.79
		c-0.39-1.78,0.72-3.5,1.82-4.9c4.45-5.66,9.85-10.62,12.95-17.22c1.97-4.19,2.93-8.87,4.97-13.02s5.63-7.96,10.03-8.09
		c1.84-0.06,3.98,0.89,4.31,2.82c0.26,1.53-0.75,3-1.92,3.94s-2.55,1.6-3.56,2.72c-1.72,1.91-2.47,5.19-4.9,5.73
		c-0.73,0.16-1.61-0.06-1.95-0.76c-0.17-0.35-0.18-0.76-0.17-1.15c0.11-3.63,2.07-7.13,5.01-8.95c0.47-0.29,0.99-0.54,1.52-0.48
		c0.54,0.07,1.05,0.57,0.98,1.14c-0.05,0.39-0.34,0.68-0.61,0.94c-1.45,1.37-2.9,2.75-4.35,4.12"/>
	<path class="st1" d="M211.38,469.05c6.28,4.47,15.01,4.63,21.43,0.4c3.94-2.6,6.93-6.6,10.81-9.3c0.97-0.67,2.04-1.28,3.2-1.3
		c2.36-0.05,4.14,2.24,5.21,4.48c2.64,5.5,3.29,11.79,3.89,17.93c0.34,3.4,0.67,6.8,1.01,10.19c0.19,1.92,0.35,3.99-0.56,5.66
		c-0.99,1.82-3.07,2.71-5.04,2.7c-1.97-0.01-3.86-0.79-5.66-1.65c-7.56-3.61-14.35-8.78-21.06-13.94c-1.39-1.07-2.93-2.42-2.91-4.25
		c0.01-1.45,1.05-2.69,2.26-3.35c1.21-0.66,2.58-0.85,3.91-1.15c3.73-0.83,7.29-2.51,10.38-4.89c2.18-1.69,4.8-3.84,7.26-2.67
		c1.83,0.87,2.55,3.2,2.95,5.28c1.06,5.49,1.28,11.15,0.67,16.72c-0.06,0.54-0.18,1.16-0.63,1.42c-0.34,0.2-0.76,0.11-1.14,0.01
		c-5.12-1.35-9.95-3.91-14.05-7.45c-1.35-1.16-2.69-3.27-1.55-4.66c0.37-0.45,0.93-0.67,1.45-0.88c2.68-1.04,5.36-2.09,8.05-3.13
		c0.55-0.21,1.12-0.43,1.71-0.38c1.81,0.15,2.56,2.49,2.88,4.39c0.23,1.35,0.45,2.76,0.13,4.09c-0.32,1.33-1.36,2.57-2.65,2.61
		c-0.75,0.02-1.46-0.35-2.11-0.74c-0.9-0.53-1.81-1.13-2.35-2.06c-0.55-0.93-0.61-2.26,0.12-3.04c0.73-0.77,2.26-0.46,2.43,0.62"/>
	<path class="st1" d="M275.99,516.7c-4.36-1.27-8.48-3.45-12.06-6.39c-1.28-1.05-2.56-2.3-2.96-3.97c-0.41-1.67,0.14-3.41,0.54-5.09
		c2.29-9.61-0.26-19.69-2.79-29.22c-0.82-3.09-1.64-6.19-2.81-9.14c-1.39-3.52-3.27-6.84-4.22-10.52s-0.81-7.98,1.52-10.88
		c1.67-2.08,4.21-3.14,6.72-3.7c10.21-2.3,21.53,3.05,26.8,12.65c2.63,4.8,3.8,10.56,2.89,16.03c-0.91,5.47-4,10.57-8.51,13.36
		c-1.51,0.94-3.17,1.62-4.6,2.71c-5.12,3.89-5.89,11.46-7.34,17.98c-0.08,0.36-0.17,0.74-0.4,1.02c-0.65,0.8-1.99,0.28-2.42-0.67
		c-0.43-0.95-0.23-2.07-0.06-3.11c2.01-11.98,0.18-24.65-5.11-35.43c-1.51-3.07-3.32-6.09-3.83-9.51s0.71-7.47,3.73-8.77
		c1.4-0.6,2.97-0.54,4.46-0.27c7.78,1.43,14.12,8.71,15.47,16.99c0.26,1.62,0.36,3.3-0.01,4.9c-1.14,4.95-4.72,11.79-9.46,11.13
		c-5.17-0.72-1.22-11.12-3.45-16.14c-1-2.25-2.71-4.16-3.29-6.57s0.79-5.65,3.12-5.46c1.22,0.1,2.2,1.12,2.95,2.15
		c3.13,4.28,4.42,10.04,3.42,15.36"/>
	<path class="st1" d="M182.56,402.24c-1.96-2.3-0.84-5.78,1.85-7.5c2.69-1.73,6.45-1.93,9.74-1.21c3.29,0.72,6.22,2.24,9.1,3.75
		c7.06,3.69,14.13,7.39,21.19,11.08c3.38,1.76,6.79,3.56,9.5,5.99c4.31,3.87,6.54,9.27,5.99,14.52c-0.57,5.37-3.83,10.24-6.15,15.27
		c-1.16,2.51-2.11,5.13-3.87,7.38c-1.76,2.26-4.55,4.16-7.78,4.35c-5.3,0.3-9.25-3.81-12.19-7.48c-8.72-10.88-17.6-22.1-20.95-34.86
		c-0.88-3.36-1.36-6.88-0.39-10.23c0.16-0.57,0.39-1.16,0.9-1.57c0.66-0.54,1.66-0.65,2.58-0.66c5.15-0.03,9.73,2.56,13.93,5.04
		c4.64,2.74,9.28,5.49,13.92,8.23c4.1,2.42,8.4,5.06,10.27,8.94c1.78,3.69,0.98,7.96-1.05,11.56c-2.03,3.6-5.19,6.66-8.32,9.68
		c-0.55,0.53-1.12,1.08-1.87,1.42c-2.76,1.24-6.21-1.3-6.28-3.9s2.01-4.87,4.09-6.81c2.08-1.94,4.38-3.96,4.93-6.52
		c0.33-1.53-0.01-3.09-0.35-4.62c-0.16-0.73-0.36-1.52-1.01-2.03c-0.99-0.78-2.68-0.58-3.76,0.11c-1.08,0.69-1.72,1.74-2.38,2.73
		c-1.47,2.21-3.21,4.29-5.18,6.21c-1.07,1.04-2.58,2.13-4.17,1.76c-0.84-0.2-1.49-0.78-1.87-1.43c-1.4-2.37,0.25-5.2,2.26-7.25
		s4.5-4.01,5.05-6.61c0.55-2.6-2.41-5.77-5.34-4.72c-3.56,1.27-2.86,6.92-6.7,7.36c-2.97,0.34-4.38-2.92-4.67-5.4
		c-0.19-1.55-0.37-3.11-0.56-4.66c-0.24-2.05,0.31-4.89,2.78-4.94c0.9-0.02,1.72,0.41,2.43,0.86c1.86,1.19,3.47,2.88,3.56,4.82
		c0.08,1.74-1.6,3.63-3.68,3.42c-2.08-0.21-2.63-3.3-0.56-3.58"/>
	<path class="st1" d="M278.81,507.11c-1.62-3.03-3.01-6.77-1.54-9.88c0.54-1.14,1.43-2.06,2.41-2.79c2.81-2.07,6.35-2.64,9.38-4.3
		c2.09-1.14,4.09-2.84,6.44-2.76c3.21,0.11,5.49,3.65,5.83,7.06c0.34,3.4-0.69,6.77-1.23,10.14c-0.57,3.53-0.76,7.5-3.2,9.95
		c-2.27,2.28-5.97,2.41-8.76,0.91c-2.79-1.5-4.77-4.32-6.1-7.34c-0.82-1.86-1.43-3.87-1.33-5.92c0.1-2.05,1.03-4.13,2.7-5.15
		c1.91-1.17,4.37-0.76,6.37-1.75c1.59-0.79,2.88-2.45,4.63-2.56c1.89-0.12,3.49,1.79,3.79,3.78s-0.4,4.01-1.24,5.82
		c-0.71,1.54-1.54,3.03-2.47,4.43c-0.41,0.61-0.84,1.22-1.41,1.65c-1.49,1.12-3.66,0.75-5.05-0.49c-1.39-1.25-2.11-3.18-2.36-5.1
		c-0.08-0.6-0.11-1.27,0.22-1.76c0.27-0.41,0.73-0.62,1.16-0.82c1.79-0.79,3.57-1.59,5.36-2.38c0.46-0.2,0.96-0.41,1.44-0.27
		c1.19,0.35,1.04,2.2,0.56,3.41c-0.5,1.27-1.17,2.6-2.36,3.15s-2.93-0.31-2.81-1.68"/>
</g>
<g id="Planet" class="st0">
	<path class="st1" d="M576,360c0,119.29-96.71,216-216,216c-51.58,0-98.95-18.09-136.09-48.27
		c47.03-42.89,102.46-95.91,160.84-154.29c53.55-53.54,102.58-104.61,143.43-148.98C558.09,261.52,576,308.67,576,360z"/>
	<path class="st1" d="M528.18,224.46c-40.85,44.37-89.88,95.44-143.43,148.98c-58.38,58.38-113.81,111.4-160.84,154.29
		c-11.61-9.42-22.22-20.03-31.64-31.64C162.09,458.95,144,411.59,144,360c0-119.29,96.71-216,216-216
		c51.34,0,98.49,17.91,135.54,47.82C507.55,201.5,518.5,212.45,528.18,224.46z"/>
	<path class="st1" d="M223.91,527.73c-78.17,71.31-133.1,114.63-139.68,108.04c-6.59-6.58,36.73-61.51,108.04-139.68
		C201.69,507.7,212.3,518.31,223.91,527.73z"/>
	<path class="st1" d="M528.18,224.46c-9.68-12.01-20.63-22.96-32.64-32.64C579.98,114.09,640.17,66,647.09,72.91
		C654,79.83,605.91,140.02,528.18,224.46z"/>
	<path class="st1" d="M223.72,485.63c-13.62-14.81-12.47-40.62,2.41-54.18c3.02-2.76,6.55-5.05,10.49-6.18
		c4.73-1.36,9.76-0.97,14.68-1.01c12.58-0.11,25.95-3.61,34.14-13.12c4.7-5.45,7.34-12.43,12.09-17.84
		c4.76-5.4,13.23-8.91,19.15-4.8c1.57,1.09,2.8,2.62,3.66,4.31c2.48,4.84,1.93,10.78-0.21,15.78s-5.7,9.25-9.26,13.37
		c-18.35,21.23-38.12,41.24-59.13,59.86c-2.89,2.56-5.89,5.14-9.53,6.44s-8.1,1.03-10.87-1.66c-2.07-2.01-2.86-4.96-3.48-7.78
		c-1.55-7.03-2.6-14.18-3.14-21.36c-0.43-5.76-0.36-12.09,3.31-16.56c5.49-6.7,15.71-5.88,24.37-6.46
		c12.8-0.87,25.23-6.28,34.55-15.05c4.17-3.92,7.94-8.63,13.3-10.64c1.24-0.47,2.69-0.76,3.85-0.12c2.82,1.54,0.95,5.82-1.17,8.22
		c-8.2,9.34-16.41,18.68-24.61,28.02c-9.15,10.41-18.73,21.15-31.5,26.61c-2.72,1.16-6.13,1.98-8.44,0.14
		c-2.06-1.65-2.27-4.64-2.3-7.28c-0.09-6.76,0.75-15.06,6.97-17.77c5.63-2.45,12.69,1.34,18.11-1.54c2.27-1.21,3.85-3.42,6.1-4.66
		c2.25-1.24,5.85-0.83,6.42,1.66c0.41,1.81-1.02,3.47-2.38,4.73c-5.96,5.52-12.83,10.08-20.24,13.43c-1.9,0.86-4.3,1.59-5.93,0.3
		c-1.56-1.23-1.42-3.82-0.11-5.31c1.31-1.49,3.41-2.04,5.4-2.08"/>
	<path class="st1" d="M268.29,518.49c-3.76-1.9-4.79-7.06-3.37-11.01c1.42-3.95,4.62-6.96,7.72-9.8
		c18.22-16.74,36.49-33.44,54.8-50.08c1.31-1.19,2.68-2.41,4.37-2.92c3-0.89,6.28,0.76,8.26,3.18c1.97,2.42,2.94,5.48,3.94,8.43
		c4.24,12.52,10.13,24.86,19.75,33.97c9.29,8.79,21.56,14.09,30.43,23.31c4.02,4.18,7.39,10.28,4.98,15.54
		c-1.66,3.63-5.58,5.65-9.36,6.96c-11.75,4.07-24.53,3.91-36.92,2.85c-17.79-1.53-35.42-4.83-52.55-9.84
		c-5.93-1.73-11.88-3.71-17.04-7.1c-3.27-2.15-6.46-5.65-5.64-9.47c0.47-2.17,2.13-3.86,3.73-5.42c5.09-4.97,10.18-9.93,15.27-14.9
		c8.2-8,16.4-16,24.6-24c2.45-2.39,5.49-4.98,8.86-4.36c1.83,0.33,3.36,1.58,4.57,2.98c5.18,5.99,5.64,14.73,9.74,21.5
		c4.89,8.08,14.13,12.24,22.22,17.16c8.08,4.93,22.35,15.15,15.75,21.92c-4.53,4.64-12.97,0.92-19.45,1.39
		c-6.05,0.43-14.21-0.75-14.92-6.75c-0.52-4.4,3.85-8.85,1.93-12.85c-0.74-1.55-2.28-2.54-3.73-3.45
		c-3.31-2.07-7.95-4.05-10.75-1.33c-1.49,1.45-1.76,3.7-2.46,5.65c-2.17,6.08-8.97,9.52-15.44,9.78
		c-6.47,0.26-12.75-2.03-18.82-4.28c-2.51-0.93-5.33-2.16-6.15-4.71c-1.49-4.6,4.37-7.75,8.31-10.57
		c6.65-4.75,9.57-13.09,14.98-19.2c3.31-3.74,9.83-6.38,12.84-2.4c1.07,1.41,1.29,3.26,1.43,5.02c0.47,6.34,0.09,13.04-3.15,18.52
		c-3.24,5.48-10.01,9.29-16.12,7.43c-2.45-0.75-4.86-2.85-4.56-5.39c0.21-1.79,1.67-3.14,3.04-4.32
		c4.11-3.55,7.07-11.99,12.34-10.64c4.49,1.15-0.52,9.7-4.65,11.79"/>
	<path class="st1" d="M358.31,463.2c6.55,11.29,16.54,20.56,28.31,26.27c6.92,3.36,14.5,5.56,20.68,10.14s10.74,12.61,8.24,19.86
		c-0.55,1.59-1.42,3.16-1.24,4.84c0.42,3.91,5.73,4.89,9.63,4.29c9.11-1.4,17.54-5.62,25.42-10.39c15.18-9.18,29-20.6,40.86-33.76
		c4.03-4.48,7.97-9.43,9.09-15.34c0.36-1.93,0.4-3.98-0.37-5.79c-1.64-3.89-6.25-5.43-10.34-6.55c-1.83-0.5-3.74-1-5.61-0.69
		c-4.35,0.73-6.8,5.51-7.32,9.87c-0.52,4.36,0.16,8.89-1.12,13.1c-1.21,3.99-4.07,7.25-7.03,10.2
		c-6.07,6.04-12.91,11.31-20.31,15.65c-3.95,2.31-8.23,4.41-12.8,4.53c-2.19,0.06-4.47-0.38-6.22-1.68
		c-3.96-2.94-3.79-9.04-1.75-13.51s5.49-8.25,7.18-12.87c1.79-4.9,1.58-10.67,4.88-14.72c4.72-5.78,14.14-4.81,20.5-0.87
		c2.98,1.85,5.79,4.46,6.49,7.88c1.32,6.41-4.93,11.62-10.43,15.19c-4.5,2.92-9.12,5.89-14.36,7.09c-2.14,0.49-4.97,0.32-5.79-1.71
		c-0.96-2.39,1.73-4.48,3.33-6.49c4.02-5.05,2.1-13.75,7.41-17.44c4.14-2.88,10.82,0.36,11.41,5.36c0.6,5-5.95,12.31-9.62,8.84
		c-1.55-1.47-0.54-4.24-0.26-6.36c0.06-0.45,0.19-0.96,0.6-1.15c0.41-0.19,0.98,0.4,0.63,0.69"/>
	<path class="st1" d="M230.79,229.97c-28.62,26.64-47.06,63.47-53.03,102.02c-5.96,38.55,0.29,78.63,16.02,114.36
		c0.98,2.23,2.05,4.51,3.9,6.11s4.69,2.31,6.77,1.04c2.89-1.76,0.06-5.7,0.47-9.05c1.25-10.22,6.93-20.67,16.69-24.1
		c9.76-3.43,23.9-2.88,34.01-5.06c10.11-2.18,21.44-4.15,26.4-13.19c2.33-4.25,4.15-10.57,4.74-15.38
		c0.49-4.03-2.41-12.2-4.02-16.06c-0.93-2.22-3.53-6.82-5.21-8.54c-5.13-5.28-15.41-13.17-25.09-15.44
		c-12.57-2.94-26.68,2.27-34.28,12.67c-3.46,4.74-5.62,10.34-9.26,14.94c-3.65,4.6-9.62,8.19-15.27,6.55
		c-4.1-1.2-7.06-4.94-8.4-8.98c-1.34-4.04-1.33-8.39-1.24-12.64c0.27-12.96,1.08-25.97,3.69-38.67c1.73-8.41,4.67-17.28,11.68-22.27
		c4.02-2.86,9.15-4.13,14.05-3.48c4.88,0.65,9.7,3.43,11.69,7.92c1.99,4.49,0.3,10.58-4.21,12.56c-2.22,0.98-4.76,0.91-7.08,1.61
		c-6.16,1.86-9.37,8.46-11.53,14.49c-1.02,2.86-3.1,6.4-6.05,5.63c-2.61-0.69-3.06-4.14-2.98-6.83c0.17-5.83,0.38-11.82,2.62-17.21
		c2.24-5.39,7-10.15,12.84-10.67c0.99-0.09,2.03-0.04,2.9,0.42c2.43,1.3,2.15,5.09,0.31,7.13c-1.84,2.04-4.6,2.92-7.03,4.21
		c-2.43,1.29-4.81,3.48-4.72,6.22"/>
	<path class="st1" d="M186.23,385.88c4.39,4.46,11.89,4.52,17.5,1.73c5.61-2.79,9.72-7.82,13.43-12.85
		c3.71-5.03,7.32-10.31,12.4-13.98c3.65-2.63,7.96-4.32,12.4-5.09c4.96-0.86,10.22-0.57,14.77,1.55c4.94,2.3,8.69,6.56,11.71,11.07
		c5.63,8.39,9.23,19.4,4.85,28.5c-0.96,1.99-2.3,3.83-4.12,5.09c-1.59,1.1-3.46,1.7-5.32,2.25c-5.76,1.7-11.62,3.04-17.55,3.99
		c-5.09,0.82-10.4,1.34-15.31-0.21s-9.33-5.67-9.75-10.78c-0.12-1.5,0.1-3.01,0.35-4.49c1.46-8.69,4.17-17.63,10.52-23.77
		c6.35-6.14,17.19-8.37,24.12-2.9c2.68,2.11,4.52,5.1,6.1,8.12c1.49,2.84,2.84,5.98,2.4,9.15c-0.62,4.48-4.67,7.78-8.91,9.41
		s-8.85,2.07-13.16,3.5c-4,1.33-8.97,3.32-11.92,0.32c-1.88-1.91-1.79-4.99-1.19-7.6c0.89-3.89,2.67-7.58,5.14-10.72
		c1.43-1.82,3.21-3.51,5.45-4.13c2.24-0.62,4.99,0.17,6,2.25c1.54,3.19-1.69,6.67-4.91,8.17c-1.47,0.69-3.26,1.54-3.38,3.15
		c-0.19,2.55,3.59,3.06,6.09,2.47c3.74-0.88,7.66-2.11,10.13-5.05c3.33-3.97,2.7-10.62-1.33-13.89c-4.03-3.27-10.7-5.25-13.94-1.2"
		/>
	<path class="st1" d="M187.6,396.93c3.11,2.69,7.66,3.36,11.65,2.33c3.99-1.02,7.46-3.56,10.25-6.57c0.47-0.51,1.02-1.08,1.72-1.05
		c0.38,0.01,0.73,0.21,1.05,0.42c2.07,1.37,3.59,3.55,4.14,5.96c0.46,1.98,0.29,4.06,0.61,6.07c0.53,3.34,5.12,5.02,5.23,8.41
		c0.2,6.04-11.44,4.59-15.89,8.7c-3.94,3.64-4.69,9.37-6.56,14.38c-0.19,0.51-1.22-0.53-1.22-0.53s-5.63-12.72-7.58-19.39
		c-0.51-1.74-0.91-3.83,0.27-5.21c0.64-0.75,1.61-1.1,2.53-1.46c5.17-2.03,8.53-7.87,14.01-8.84c3.13-0.55,3.9,5.13,2.92,8.15
		s-3.35,5.34-5.67,7.5c-1.86,1.74-4.6,3.57-6.74,2.18c-1.92-1.24-1.62-4.35,0-5.97c1.62-1.61,4-2.13,6.25-2.57"/>
	<path class="st1" d="M223.72,485.63c-13.62-14.81-12.47-40.62,2.41-54.18c3.02-2.76,6.55-5.05,10.49-6.18
		c4.73-1.36,9.76-0.97,14.68-1.01c12.58-0.11,25.95-3.61,34.14-13.12c4.7-5.45,7.34-12.43,12.09-17.84
		c4.76-5.4,13.23-8.91,19.15-4.8c1.57,1.09,2.8,2.62,3.66,4.31c2.48,4.84,1.93,10.78-0.21,15.78s-5.7,9.25-9.26,13.37
		c-18.35,21.23-38.12,41.24-59.13,59.86c-2.89,2.56-5.89,5.14-9.53,6.44s-8.1,1.03-10.87-1.66c-2.07-2.01-2.86-4.96-3.48-7.78
		c-1.55-7.03-2.6-14.18-3.14-21.36c-0.43-5.76-0.36-12.09,3.31-16.56c5.49-6.7,15.71-5.88,24.37-6.46
		c12.8-0.87,25.23-6.28,34.55-15.05c4.17-3.92,7.94-8.63,13.3-10.64c1.24-0.47,2.69-0.76,3.85-0.12c2.82,1.54,0.95,5.82-1.17,8.22
		c-8.2,9.34-16.41,18.68-24.61,28.02c-9.15,10.41-18.73,21.15-31.5,26.61c-2.72,1.16-6.13,1.98-8.44,0.14
		c-2.06-1.65-2.27-4.64-2.3-7.28c-0.09-6.76,0.75-15.06,6.97-17.77c5.63-2.45,12.69,1.34,18.11-1.54c2.27-1.21,3.85-3.42,6.1-4.66
		c2.25-1.24,5.85-0.83,6.42,1.66c0.41,1.81-1.02,3.47-2.38,4.73c-5.96,5.52-12.83,10.08-20.24,13.43c-1.9,0.86-4.3,1.59-5.93,0.3
		c-1.56-1.23-1.42-3.82-0.11-5.31c1.31-1.49,3.41-2.04,5.4-2.08"/>
	<path class="st1" d="M230.79,229.97c-28.62,26.64-47.06,63.47-53.03,102.02c-5.96,38.55,0.29,78.63,16.02,114.36
		c0.98,2.23,2.05,4.51,3.9,6.11s4.69,2.31,6.77,1.04c2.89-1.76,0.06-5.7,0.47-9.05c1.25-10.22,6.93-20.67,16.69-24.1
		c9.76-3.43,23.9-2.88,34.01-5.06c10.11-2.18,21.44-4.15,26.4-13.19c2.33-4.25,4.15-10.57,4.74-15.38
		c0.49-4.03-2.41-12.2-4.02-16.06c-0.93-2.22-3.53-6.82-5.21-8.54c-5.13-5.28-15.41-13.17-25.09-15.44
		c-12.57-2.94-26.68,2.27-34.28,12.67c-3.46,4.74-5.62,10.34-9.26,14.94c-3.65,4.6-9.62,8.19-15.27,6.55
		c-4.1-1.2-7.06-4.94-8.4-8.98c-1.34-4.04-1.33-8.39-1.24-12.64c0.27-12.96,1.08-25.97,3.69-38.67c1.73-8.41,4.67-17.28,11.68-22.27
		c4.02-2.86,9.15-4.13,14.05-3.48c4.88,0.65,9.7,3.43,11.69,7.92c1.99,4.49,0.3,10.58-4.21,12.56c-2.22,0.98-4.76,0.91-7.08,1.61
		c-6.16,1.86-9.37,8.46-11.53,14.49c-1.02,2.86-3.1,6.4-6.05,5.63c-2.61-0.69-3.06-4.14-2.98-6.83c0.17-5.83,0.38-11.82,2.62-17.21
		c2.24-5.39,7-10.15,12.84-10.67c0.99-0.09,2.03-0.04,2.9,0.42c2.43,1.3,2.15,5.09,0.31,7.13c-1.84,2.04-4.6,2.92-7.03,4.21
		c-2.43,1.29-4.81,3.48-4.72,6.22"/>
	<path class="st1" d="M186.23,385.88c4.39,4.46,11.89,4.52,17.5,1.73c5.61-2.79,9.72-7.82,13.43-12.85
		c3.71-5.03,7.32-10.31,12.4-13.98c3.65-2.63,7.96-4.32,12.4-5.09c4.96-0.86,10.22-0.57,14.77,1.55c4.94,2.3,8.69,6.56,11.71,11.07
		c5.63,8.39,9.23,19.4,4.85,28.5c-0.96,1.99-2.3,3.83-4.12,5.09c-1.59,1.1-3.46,1.7-5.32,2.25c-5.76,1.7-11.62,3.04-17.55,3.99
		c-5.09,0.82-10.4,1.34-15.31-0.21s-9.33-5.67-9.75-10.78c-0.12-1.5,0.1-3.01,0.35-4.49c1.46-8.69,4.17-17.63,10.52-23.77
		c6.35-6.14,17.19-8.37,24.12-2.9c2.68,2.11,4.52,5.1,6.1,8.12c1.49,2.84,2.84,5.98,2.4,9.15c-0.62,4.48-4.67,7.78-8.91,9.41
		s-8.85,2.07-13.16,3.5c-4,1.33-8.97,3.32-11.92,0.32c-1.88-1.91-1.79-4.99-1.19-7.6c0.89-3.89,2.67-7.58,5.14-10.72
		c1.43-1.82,3.21-3.51,5.45-4.13c2.24-0.62,4.99,0.17,6,2.25c1.54,3.19-1.69,6.67-4.91,8.17c-1.47,0.69-3.26,1.54-3.38,3.15
		c-0.19,2.55,3.59,3.06,6.09,2.47c3.74-0.88,7.66-2.11,10.13-5.05c3.33-3.97,2.7-10.62-1.33-13.89c-4.03-3.27-10.7-5.25-13.94-1.2"
		/>
	<path class="st1" d="M187.6,396.93c3.11,2.69,7.66,3.36,11.65,2.33c3.99-1.02,7.46-3.56,10.25-6.57c0.47-0.51,1.02-1.08,1.72-1.05
		c0.38,0.01,0.73,0.21,1.05,0.42c2.07,1.37,3.59,3.55,4.14,5.96c0.46,1.98,0.29,4.06,0.61,6.07c0.53,3.34,5.12,5.02,5.23,8.41
		c0.2,6.04-11.44,4.59-15.89,8.7c-3.94,3.64-4.69,9.37-6.56,14.38c-0.19,0.51-1.22-0.53-1.22-0.53s-5.63-12.72-7.58-19.39
		c-0.51-1.74-0.91-3.83,0.27-5.21c0.64-0.75,1.61-1.1,2.53-1.46c5.17-2.03,8.53-7.87,14.01-8.84c3.13-0.55,3.9,5.13,2.92,8.15
		s-3.35,5.34-5.67,7.5c-1.86,1.74-4.6,3.57-6.74,2.18c-1.92-1.24-1.62-4.35,0-5.97c1.62-1.61,4-2.13,6.25-2.57"/>
</g>
<g id="Cloud" class="st0">
	<path class="st1" d="M631.5,504c0,19.88-16.12,36-36,36h-471c-19.88,0-36-16.12-36-36s16.12-36,36-36c2.16,0,4.28,0.19,6.34,0.56
		c-4.1-11.42-6.34-23.73-6.34-36.56c0-57.14,44.37-103.92,100.55-107.74C241.63,241.97,314.33,180,401.5,180
		c99.41,0,180,80.59,180,180c0,19.37-3.06,38.03-8.72,55.52c13.98,13.12,22.72,31.78,22.72,52.48C615.38,468,631.5,484.12,631.5,504
		z"/>
	<path class="st1" d="M218.29,520.1c-19.33-6.76-36.07-20.23-46.47-37.39s-14.37-37.88-11.02-57.5c2.02-11.85,6.71-23.39,14.4-32.82
		c16.36-20.05,45.17-28.32,71.24-24.28c26.07,4.04,50.37,20.04,61.84,43.06c11.47,23.01,8.76,52.56-8.38,71.99
		c-5.46,6.19-12.2,11.3-19.59,15.2c-18.81,9.92-42.24,11.63-62.07,3.78c-19.83-7.84-35.5-25.31-39.94-45.59
		c-4.43-20.28,2.85-42.77,19-56.39c5.27-4.44,11.88-8.08,18.84-7.57s13.73,6.6,12.62,13.27c-1.29,7.8-10.89,10.84-17.36,15.67
		c-7.91,5.9-11.81,16.07-10.95,25.7c0.86,9.63,6.09,18.61,13.35,25.24c13.51,12.32,34.54,16.48,51.74,9.73
		c17.2-6.75,29.4-24.31,28.78-42.26c-0.62-17.95-14.39-34.9-32.42-39.17c-7.88-1.87-18.78,0.62-19.51,8.43
		c-0.76,8.03,9.37,12.03,16.37,16.41c8.11,5.07,13.84,14.63,11.73,23.74c-2.46,10.62-14.29,16.88-25.46,18.16
		c-7.58,0.87-15.76-0.07-21.82-4.56c-5.81-4.31-8.96-11.75-7.94-18.76s6.15-13.33,12.96-15.94c6.53-2.5,14.61-1.38,19.61,3.39
		c5,4.77,6.13,13.15,1.91,18.59c-4.21,5.44-13.56,6.5-18.49,1.66c-2.06-2.02-3.24-5.26-1.81-7.74c1.43-2.48,6.04-2.7,6.97-0.01"/>
	<path class="st1" d="M235.84,521.95c15.46,0.28,31.41,0.48,45.75-5.13c21.5-8.41,35.64-28.35,46.43-48.22
		c5-9.22,9.78-18.91,17.86-25.78s20.6-10.13,29.72-4.6c6.91,4.19,10.17,12.17,12.46,19.75c3.17,10.49,5.34,21.29,9.45,31.46
		c4.12,10.17,10.48,19.93,20.06,25.72c12.76,7.71,30.44,6.85,42.33-2.07c3.25-2.44,6.13-5.49,7.6-9.2
		c2.42-6.12,0.54-13.33-3.69-18.45s-10.49-8.37-16.98-10.25c-4.21-1.22-8.76-1.91-12.98-0.75c-7.18,1.98-11.92,9.17-12.49,16.37
		c-0.55,6.96,2.52,14.32,8.54,18.17c6.01,3.85,14.87,3.44,19.86-1.59c4.99-5.03,4.63-14.37-1.25-18.41
		c-3.81-2.61-9.79-2.41-12.59,1.21c-2.8,3.62-0.28,10.06,4.39,10.13c2.16,0.03,4.04-3.36,1.92-3.75"/>
	<path class="st1" d="M297.5,520.16c10.3-0.7,19.61-6.69,26.24-14.36c6.62-7.67,10.93-16.92,14.93-26.13
		c3.6-8.28,7.28-16.98,14.4-22.76c2.22-1.81,4.87-3.32,7.77-3.49c4.09-0.24,7.93,2.28,10.29,5.53s3.49,7.15,4.59,10.97
		c4.39,15.31,8.79,30.61,13.18,45.92c0.52,1.83,1.05,3.78,0.43,5.58c-1.16,3.38-5.52,4.4-9.18,4.69
		c-12.48,0.97-25.16-0.48-37.05-4.26c-2.95-0.94-6.07-2.17-7.71-4.72c-2.36-3.65-0.82-8.41,0.97-12.35
		c5.33-11.7,12.48-22.62,21.12-32.29c1.62-1.82,4.15-3.75,6.31-2.57c1.22,0.67,1.73,2.09,2.12,3.4c3.07,10.32,4.98,20.96,5.68,31.67
		c0.09,1.33,0.15,2.69-0.23,3.97c-0.45,1.51-1.5,2.81-2.77,3.8c-4.66,3.62-12.42,2.5-15.78-2.28c-3.36-4.78-1.58-12.18,3.61-15.03"
		/>
	<path class="st1" d="M195.09,521.56c-10.65-5.25-19.05-13.83-28.16-21.33c-9.1-7.5-19.8-14.27-31.75-14.63
		c-3.83-0.11-7.85,0.52-10.88,2.78c-4.63,3.46-5.81,10-4.3,15.47c2.03,7.32,8.42,13.33,16.04,15.09c7.98,1.84,18.67,2.69,24.02-3.33
		c3.29-3.7-1.46-9.77-5.08-13.16c-3.62-3.39-8.35-5.45-13.09-7.11c-4.13-1.45-9.23-2.49-12.53,0.31c-3.3,2.8-2.76,8.26,0.09,11.48
		c2.86,3.22,7.29,4.66,11.58,5.54c2.68,0.55,6.69-0.18,6.34-2.81c-0.11-0.8-0.66-1.47-1.23-2.05c-2.17-2.21-4.96-3.83-7.99-4.66"/>
	<path class="st1" d="M327.64,440.27c8.86-21.74,2.65-48.44-14.99-64.41c-8.48-7.68-19.02-12.82-28.53-19.28
		c-9.51-6.46-18.44-14.94-21.09-25.88c-2.13-8.76,0.08-18.04,3.84-26.28c5.33-11.69,14-22.15,25.4-28.6
		c11.4-6.45,25.61-8.6,38.14-4.56c18.29,5.89,30.65,25.53,27.67,43.96c-2.99,18.43-20.98,33.46-40.25,33.64
		c-4.55,0.04-9.17-0.67-13.28-2.57c-4.23-1.96-7.77-5.11-10.64-8.7c-8.67-10.88-10.76-26.98-3.11-38.55
		c7.65-11.57,25.57-16.2,37.1-8.19c5.34,3.71,8.97,9.89,8.74,16.24c-0.23,6.35-4.71,12.56-11.03,14.28
		c-6.32,1.73-13.9-1.75-15.89-7.81c-1.11-3.39-0.2-7.64,2.95-9.47c3.15-1.83,8.22,0.27,8.15,3.83"/>
	<path class="st1" d="M341.78,432.32c9.7-10.67,26.91-16.4,39.46-9.03c4.55,2.67,8.1,6.79,12.8,9.2c9.01,4.63,20.88,1.74,28.01-5.33
		c7.13-7.06,9.94-17.44,9.41-27.31c-0.61-11.4-5.81-22.98-15.55-29.42c-9.74-6.44-24.22-6.42-32.59,1.61
		c-5.87,5.63-7.95,13.84-11.4,21.1c-3.45,7.26-9.86,14.54-18.12,14.23c-8.64-0.32-14.46-8.69-17.36-16.57
		c-2.56-6.97-4.04-14.5-2.69-21.78s5.89-14.26,12.82-17.36s16.2-1.48,20.56,4.59c3.1,4.31,3.39,10.01,2.31,15.15
		c-1.06,5.02-3.76,10.22-8.68,12.12c-4.69,1.81-10.61-0.25-13.03-4.54c-2.42-4.29-1.02-10.22,3.09-13.07
		c2.74-1.9,7.02-2.19,9.19,0.31c2.17,2.5-0.22,7.42-3.46,6.54"/>
</g>
<g id="Rain" class="st0">
	<path class="st1" d="M595.51,435.4c0,15.9-13.98,28.8-31.23,28.8H155.72c-17.24,0-31.23-12.9-31.23-28.8s13.98-28.8,31.23-28.8
		c1.87,0,3.71,0.15,5.5,0.45c-3.56-9.14-5.5-18.98-5.5-29.25c0-45.71,38.49-83.14,87.22-86.19C257.32,225.77,320.38,176.2,396,176.2
		c86.23,0,156.14,64.47,156.14,144c0,15.5-2.65,30.42-7.56,44.42c12.13,10.5,19.71,25.42,19.71,41.98
		C581.53,406.6,595.51,419.49,595.51,435.4z"/>
	<line class="st1" x1="149.36" y1="543.8" x2="193.21" y2="499.95"/>
	<line class="st1" x1="193.21" y1="543.8" x2="237.07" y2="499.95"/>
	<line class="st1" x1="237.07" y1="543.8" x2="280.93" y2="499.95"/>
	<line class="st1" x1="280.93" y1="543.8" x2="324.79" y2="499.95"/>
	<line class="st1" x1="324.79" y1="543.8" x2="368.64" y2="499.95"/>
	<line class="st1" x1="368.64" y1="543.8" x2="412.5" y2="499.95"/>
	<line class="st1" x1="412.5" y1="543.8" x2="456.36" y2="499.95"/>
	<line class="st1" x1="456.36" y1="543.8" x2="500.22" y2="499.95"/>
	<line class="st1" x1="500.22" y1="543.8" x2="544.07" y2="499.95"/>
	<path class="st1" d="M160.12,423.33c-6.05,2.69-6.23,10.43-1.23,14.26s13.16,4.01,19.44,1.68s11.01-6.69,14.98-11.23
		c3.97-4.54,7.43-9.41,12.19-13.43c5.42-4.6,12.42-7.96,19.97-9.82c5.32-1.31,11.17-1.88,16.4-0.34c5.22,1.54,9.54,5.62,9.19,10.06
		c-0.58,7.33-12.56,11.94-12.13,19.28c0.26,4.38,5.35,7.88,10.75,8.63s10.93-0.7,15.81-2.7c18.99-7.81,30.59-23.34,43.14-37.15
		c6.33-6.96,13.43-13.85,23.01-17.77c12.66-5.19,28.89-4.23,40.45,2.39c2.42,1.39,4.68,3.03,6.12,5.11
		c3.88,5.61,0.85,12.74-3.83,17.94c-4.16,4.62-9.79,8.97-10.34,14.64c-0.76,7.8,9.41,14.19,19.2,14.14
		c9.78-0.05,18.59-4.8,25.53-10.31c6.94-5.51,12.73-11.97,20.33-16.89s17.84-8.21,27.19-5.92c6.15,1.51,11.62,6.25,10.55,11.32
		c-0.85,4.05-5.46,7.07-6.42,11.1c-0.97,4.12,2.27,8.3,6.65,10.61s9.69,3.13,14.87,3.8c7.87,1.02,15.91,1.81,23.78,0.84
		c7.88-0.96,15.67-3.89,20.35-9.05c2.41-2.66,3.9-5.8,4.97-8.97c1.82-5.42,2.38-11.57-1.38-16.31c-4.99-6.29-16.66-7.79-24.82-4.2
		s-12.77,11.14-13.27,18.58c-0.11,1.56-0.03,3.2,0.88,4.59c2.84,4.29,10.81,3.27,16.45,1.48c6.58-2.09,14.21-5.87,13.47-11.5
		c-0.47-3.56-4.99-6.43-9.44-6s-7.96,4.1-7.34,7.65c0.15,0.83,0.72,1.79,1.77,1.82c1.05,0.03,1.21-1.65,0.19-1.44"/>
	<path class="st1" d="M520.05,445.29c6.43-1.94,12.04-5.58,15.71-10.23c2.17-2.74,3.66-5.78,5.71-8.58s4.82-5.43,8.59-6.62
		s8.66-0.53,10.91,2.16c1.94,2.33,1.5,5.4,2.23,8.14c0.48,1.79,1.49,3.53,1.46,5.36c-0.06,3.63-4.08,6.37-8,8.21
		c-4.71,2.21-10.39,3.93-15.57,2.54c-0.98-0.26-1.96-0.66-2.53-1.34c-0.47-0.55-0.63-1.24-0.69-1.91
		c-0.59-6.3,6.19-11.36,12.7-14.95c0.39-0.22,0.81-0.44,1.28-0.49c1.24-0.13,2.13,0.92,2.52,1.87c1.38,3.33,0.4,7.22-2.49,9.85
		c-0.58,0.53-1.27,1.03-2.13,1.18c-1.98,0.35-3.73-1.41-3.65-3.03c0.08-1.62,1.36-3.02,2.59-4.31"/>
	<path class="st1" d="M184.5,442.37c9.14-0.76,15.94-6.92,21.32-12.87c5.38-5.95,10.93-12.53,19.6-14.96
		c2.86-0.8,6.27-1.03,8.72,0.4c3.44,2.01,3.31,6.19,1.81,9.38s-4.04,6.16-4.32,9.55c-0.29,3.47,1.7,7.42-0.95,10.17
		c-2.08,2.16-6,2.4-9.4,2.19c-3.4-0.2-6.89-0.69-9.73-2.19c-2.84-1.5-4.89-4.23-4.28-6.91c0.28-1.22,1.06-2.33,1.91-3.37
		c3.06-3.78,7.07-7.07,11.73-9.6c1.09-0.59,2.46-1.17,3.67-0.74c0.65,0.23,1.1,0.7,1.47,1.18c2.11,2.75,2.33,6.37,0.57,9.27
		s-5.91,6.88-9.48,5.36c-3.54-1.5-0.41-6.76,3.06-8.35"/>
	<path class="st1" d="M264.01,446.07c9.49,0.96,18.1-4.38,24.6-9.99c9.24-7.97,16.79-17.11,25.8-25.24
		c9.01-8.14,19.95-15.46,33.1-18.23c4.89-1.03,10.72-1.22,14.37,1.58c3.51,2.69,3.65,7.24,2.04,10.91
		c-1.61,3.67-4.62,6.82-6.83,10.29c-3.79,5.95-5.12,12.88-3.74,19.46c0.34,1.63,0.83,3.39-0.07,4.88c-0.91,1.53-3.01,2.34-5.01,2.88
		c-7.95,2.14-16.56,1.78-24.94,1.4c-7.79-0.36-17.52-1.93-19.3-8.01c-1.36-4.64,3.01-8.98,7.07-12.46
		c7.62-6.54,15.33-13.15,24.62-18.12c2.93-1.56,7.13-2.88,9.66-0.92c1.45,1.12,1.67,2.9,1.69,4.52c0.08,6.15-1.42,12.31-4.37,17.98
		c-1.83,3.52-4.38,7-8.43,9.02c-4.05,2.02-9.9,2.11-13.21-0.63c-3.33-2.76-3-7.39-0.55-10.69c2.45-3.29,6.53-5.56,10.48-7.73
		c1.96-1.07,4.96-2.03,6.36-0.5c0.54,0.58,0.6,1.36,0.64,2.08c0.16,2.89,0.17,6.12-2.33,8.21c-2.5,2.08-8.26,1.18-8.08-1.7"/>
	<path class="st1" d="M396.53,441.71c11.29-0.85,19.69-8.39,26.97-15.35c7.28-6.95,15.95-14.39,27.27-14.88
		c0.98-0.04,2.05-0.01,2.84,0.45c0.69,0.4,1.06,1.07,1.27,1.74c1.19,3.86-2.21,7.53-3.91,11.26c-1.27,2.78-1.62,5.83-0.99,8.74
		c0.63,2.95,1.9,6.64-1.1,8.42c-1,0.59-2.27,0.79-3.49,0.97c-7.89,1.18-16.73,2.23-23.38-1.36c-0.85-0.46-1.71-1.09-1.78-1.91
		c-0.06-0.7,0.49-1.33,1.01-1.9c4.86-5.24,10.09-10.26,15.66-15.03c1.75-1.5,4.38-3.09,6.61-2.09c1.6,0.72,1.99,2.47,1.6,3.9
		c-0.39,1.43-1.34,2.73-1.79,4.15c-0.41,1.3-0.39,2.67-0.87,3.95c-0.83,2.23-3.25,4.03-6.1,4.54c-1.83,0.32-4.23-0.18-4.58-1.65
		c-0.18-0.75,0.26-1.5,0.73-2.17c2.1-3,5.03-5.61,8.53-7.61"/>
	<path class="st1" d="M526.46,393.15c-15.29-3.72-33.44,4-38.13,16.22c-1.3,3.39-1.8,7.19-4.82,9.79c-3.02,2.59-9.87,2.39-10.61-1.1
		c-0.39-1.83,1.09-3.54,1.91-5.28c3.48-7.45-6.4-15.38-16.34-15.8c-9.94-0.43-19.05,4.04-27.42,8.35
		c-10.36,5.33-20.73,10.65-31.09,15.98c-3.52,1.81-8.36,3.58-11.53,1.39c-1.29-0.89-1.91-2.23-2.35-3.54
		c-1.9-5.6,1.72-17.77,7.4-14.17c2.29,1.45,3.38,3.91,6.3,3.9c2.92,0,5.62-1.17,8.13-2.36c3.04-1.44,6.11-3.05,8-5.44
		c1.89-2.39,2.26-5.77-0.03-7.91c-2.91-2.72-8.19-2.26-12.67-2.1c-4.48,0.16-10.2-1.12-10.65-4.68c-0.11-0.91,0.17-1.82,0.32-2.72
		c0.99-6.22-4.89-12.17-12.15-14.55c-7.26-2.38-15.49-1.88-23.17-0.63c-21.49,3.5-41.46,12.72-55.99,25.86
		c-6.6,5.97-12.08,12.7-19,18.43c-6.92,5.73-16.97,15.15-25.64,11.23c-6.55-2.96,3.47-11.2,9.89-14.32
		c6.01-2.92,12.43-5.42,17.6-9.23c5.16-3.81,8.98-9.36,7.87-14.91s-8.68-10.24-15.26-8.27c-7.59,2.27-10.34,17.65-17.83,20.13
		c-8.4,2.78-21.6-5.1-30.68-5.48c-15.12-0.63-22.61,18.84-37.55,16.88c-7.9-1.04-10.56-15.66-10.94-22.05
		c-0.38-6.39,3.21-12.52,7.59-17.88c7.95-9.72,19.42-18.17,33.52-20.96c14.1-2.79,30.83,1.31,37.95,11.43
		c2.46,3.5,3.69,7.73,2.33,11.6s-2.04,12.32-7.07,12.44c-5.77,0.13-15.18-3.62-20.86-4.42c-11.37-1.6-18.45,3.13-28.11,8.19
		c-5.13,2.69-13.58,3.35-16.06-1.13c-1.31-2.37-0.24-5.12,1.11-7.48c6.57-11.47,19.81-20.37,35.08-23.57
		c4.04-0.85,8.5-1.29,12.28,0.15c3.78,1.43,6.31,5.33,4.3,8.26c-0.77,1.12-2.08,1.96-3.46,2.6c-7.31,3.37-17.22,2.09-23.83,6.27
		c-2.51,1.59-4.31,3.86-7,5.25c-2.69,1.4-6.98,1.47-8.48-0.8c-1.98-2.99,2.57-5.99,6.39-7.45c8.09-3.08,16.17-6.15,24.26-9.23"/>
</g>
<g id="Lightning" class="st0">
	<path class="st1" d="M595.51,367.49c0,15.9-13.98,28.8-31.23,28.8H155.72c-17.24,0-31.23-12.9-31.23-28.8s13.98-28.8,31.23-28.8
		c1.87,0,3.71,0.15,5.5,0.45c-3.56-9.14-5.5-18.98-5.5-29.25c0-45.71,38.49-83.14,87.22-86.19
		c14.38-65.83,77.45-115.41,153.06-115.41c86.23,0,156.14,64.47,156.14,144c0,15.5-2.65,30.42-7.56,44.42
		c12.13,10.5,19.71,25.42,19.71,41.98C581.53,338.69,595.51,351.58,595.51,367.49z"/>
	<path class="st1" d="M160.12,355.42c-6.05,2.69-6.23,10.43-1.23,14.26s13.16,4.01,19.44,1.68s11.01-6.69,14.98-11.23
		c3.97-4.54,7.43-9.41,12.19-13.43c5.42-4.6,12.42-7.96,19.97-9.82c5.32-1.31,11.17-1.88,16.4-0.34c5.22,1.54,9.54,5.62,9.19,10.06
		c-0.58,7.33-12.56,11.94-12.13,19.28c0.26,4.38,5.35,7.88,10.75,8.63s10.93-0.7,15.81-2.7c18.99-7.81,30.59-23.34,43.14-37.15
		c6.33-6.96,13.43-13.85,23.01-17.77c12.66-5.19,28.89-4.23,40.45,2.39c2.42,1.39,4.68,3.03,6.12,5.11
		c3.88,5.61,0.85,12.74-3.83,17.94c-4.16,4.62-9.79,8.97-10.34,14.64c-0.76,7.8,9.41,14.19,19.2,14.14
		c9.78-0.05,18.59-4.8,25.53-10.31c6.94-5.51,12.73-11.97,20.33-16.89s17.84-8.21,27.19-5.92c6.15,1.51,11.62,6.25,10.55,11.32
		c-0.85,4.05-5.46,7.07-6.42,11.1c-0.97,4.12,2.27,8.3,6.65,10.61s9.69,3.13,14.87,3.8c7.87,1.02,15.91,1.81,23.78,0.84
		c7.88-0.96,15.67-3.89,20.35-9.05c2.41-2.66,3.9-5.8,4.97-8.97c1.82-5.42,2.38-11.57-1.38-16.31c-4.99-6.29-16.66-7.79-24.82-4.2
		s-12.77,11.14-13.27,18.58c-0.11,1.56-0.03,3.2,0.88,4.59c2.84,4.29,10.81,3.27,16.45,1.48c6.58-2.09,14.21-5.87,13.47-11.5
		c-0.47-3.56-4.99-6.43-9.44-6s-7.96,4.1-7.34,7.65c0.15,0.83,0.72,1.79,1.77,1.82c1.05,0.03,1.21-1.65,0.19-1.44"/>
	<path class="st1" d="M520.05,377.38c6.43-1.94,12.04-5.58,15.71-10.23c2.17-2.74,3.66-5.78,5.71-8.58s4.82-5.43,8.59-6.62
		s8.66-0.53,10.91,2.16c1.94,2.33,1.5,5.4,2.23,8.14c0.48,1.79,1.49,3.53,1.46,5.36c-0.06,3.63-4.08,6.37-8,8.21
		c-4.71,2.21-10.39,3.93-15.57,2.54c-0.98-0.26-1.96-0.66-2.53-1.34c-0.47-0.55-0.63-1.24-0.69-1.91
		c-0.59-6.3,6.19-11.36,12.7-14.95c0.39-0.22,0.81-0.44,1.28-0.49c1.24-0.13,2.13,0.92,2.52,1.87c1.38,3.33,0.4,7.22-2.49,9.85
		c-0.58,0.53-1.27,1.03-2.13,1.18c-1.98,0.35-3.73-1.41-3.65-3.03c0.08-1.62,1.36-3.02,2.59-4.31"/>
	<path class="st1" d="M184.5,374.46c9.14-0.76,15.94-6.92,21.32-12.87s10.93-12.53,19.6-14.96c2.86-0.8,6.27-1.03,8.72,0.4
		c3.44,2.01,3.31,6.19,1.81,9.38s-4.04,6.16-4.32,9.55c-0.29,3.47,1.7,7.42-0.95,10.17c-2.08,2.16-6,2.4-9.4,2.19
		c-3.4-0.2-6.89-0.69-9.73-2.19c-2.84-1.5-4.89-4.23-4.28-6.91c0.28-1.22,1.06-2.33,1.91-3.37c3.06-3.78,7.07-7.07,11.73-9.6
		c1.09-0.59,2.46-1.17,3.67-0.74c0.65,0.23,1.1,0.7,1.47,1.18c2.11,2.75,2.33,6.37,0.57,9.27s-5.91,6.88-9.48,5.36
		c-3.54-1.5-0.41-6.76,3.06-8.35"/>
	<path class="st1" d="M264.01,378.17c9.49,0.96,18.1-4.38,24.6-9.99c9.24-7.97,16.79-17.11,25.8-25.24
		c9.01-8.14,19.95-15.46,33.1-18.23c4.89-1.03,10.72-1.22,14.37,1.58c3.51,2.69,3.65,7.24,2.04,10.91
		c-1.61,3.67-4.62,6.82-6.83,10.29c-3.79,5.95-5.12,12.88-3.74,19.46c0.34,1.63,0.83,3.39-0.07,4.88c-0.91,1.53-3.01,2.34-5.01,2.88
		c-7.95,2.14-16.56,1.78-24.94,1.4c-7.79-0.36-17.52-1.93-19.3-8.01c-1.36-4.64,3.01-8.98,7.07-12.46
		c7.62-6.54,15.33-13.15,24.62-18.12c2.93-1.56,7.13-2.88,9.66-0.92c1.45,1.12,1.67,2.9,1.69,4.52c0.08,6.15-1.42,12.31-4.37,17.98
		c-1.83,3.52-4.38,7-8.43,9.02c-4.05,2.02-9.9,2.11-13.21-0.63c-3.33-2.76-3-7.39-0.55-10.69c2.45-3.29,6.53-5.56,10.48-7.73
		c1.96-1.07,4.96-2.03,6.36-0.5c0.54,0.58,0.6,1.36,0.64,2.08c0.16,2.89,0.17,6.12-2.33,8.21c-2.5,2.08-8.26,1.18-8.08-1.7"/>
	<path class="st1" d="M396.53,373.8c11.29-0.85,19.69-8.39,26.97-15.35c7.28-6.95,15.95-14.39,27.27-14.88
		c0.98-0.04,2.05-0.01,2.84,0.45c0.69,0.4,1.06,1.07,1.27,1.74c1.19,3.86-2.21,7.53-3.91,11.26c-1.27,2.78-1.62,5.83-0.99,8.74
		c0.63,2.95,1.9,6.64-1.1,8.42c-1,0.59-2.27,0.79-3.49,0.97c-7.89,1.18-16.73,2.23-23.38-1.36c-0.85-0.46-1.71-1.09-1.78-1.91
		c-0.06-0.7,0.49-1.33,1.01-1.9c4.86-5.24,10.09-10.26,15.66-15.03c1.75-1.5,4.38-3.09,6.61-2.09c1.6,0.72,1.99,2.47,1.6,3.9
		c-0.39,1.43-1.34,2.73-1.79,4.15c-0.41,1.3-0.39,2.67-0.87,3.95c-0.83,2.23-3.25,4.03-6.1,4.54c-1.83,0.32-4.23-0.18-4.58-1.65
		c-0.18-0.75,0.26-1.5,0.73-2.17c2.1-3,5.03-5.61,8.53-7.61"/>
	<path class="st1" d="M526.46,325.24c-15.29-3.72-33.44,4-38.13,16.22c-1.3,3.39-1.8,7.19-4.82,9.79c-3.02,2.59-9.87,2.39-10.61-1.1
		c-0.39-1.83,1.09-3.54,1.91-5.28c3.48-7.45-6.4-15.38-16.34-15.8c-9.94-0.43-19.05,4.04-27.42,8.35
		c-10.36,5.33-20.73,10.65-31.09,15.98c-3.52,1.81-8.36,3.58-11.53,1.39c-1.29-0.89-1.91-2.23-2.35-3.54
		c-1.9-5.6,1.72-17.77,7.4-14.17c2.29,1.45,3.38,3.91,6.3,3.9c2.92,0,5.62-1.17,8.13-2.36c3.04-1.44,6.11-3.05,8-5.44
		c1.89-2.39,2.26-5.77-0.03-7.91c-2.91-2.72-8.19-2.26-12.67-2.1c-4.48,0.16-10.2-1.12-10.65-4.68c-0.11-0.91,0.17-1.82,0.32-2.72
		c0.99-6.22-4.89-12.17-12.15-14.55c-7.26-2.38-15.49-1.88-23.17-0.63c-21.49,3.5-41.46,12.72-55.99,25.86
		c-6.6,5.97-12.08,12.7-19,18.43c-6.92,5.73-16.97,15.15-25.64,11.23c-6.55-2.96,3.47-11.2,9.89-14.32
		c6.01-2.92,12.43-5.42,17.6-9.23c5.16-3.81,8.98-9.36,7.87-14.91s-8.68-10.24-15.26-8.27c-7.59,2.27-10.34,17.65-17.83,20.13
		c-8.4,2.78-21.6-5.1-30.68-5.48c-15.12-0.63-22.61,18.84-37.55,16.88c-7.9-1.04-10.56-15.66-10.94-22.05
		c-0.38-6.39,3.21-12.52,7.59-17.88c7.95-9.72,19.42-18.17,33.52-20.96c14.1-2.79,30.83,1.31,37.95,11.43
		c2.46,3.5,3.69,7.73,2.33,11.6s-2.04,12.32-7.07,12.44c-5.77,0.13-15.18-3.62-20.86-4.42c-11.37-1.6-18.45,3.13-28.11,8.19
		c-5.13,2.69-13.58,3.35-16.06-1.13c-1.31-2.37-0.24-5.12,1.11-7.48c6.57-11.47,19.81-20.37,35.08-23.57
		c4.04-0.85,8.5-1.29,12.28,0.15c3.78,1.43,6.31,5.33,4.3,8.26c-0.77,1.12-2.08,1.96-3.46,2.6c-7.31,3.37-17.22,2.09-23.83,6.27
		c-2.51,1.59-4.31,3.86-7,5.25c-2.69,1.4-6.98,1.47-8.48-0.8c-1.98-2.99,2.57-5.99,6.39-7.45c8.09-3.08,16.17-6.15,24.26-9.23"/>
	<path class="st1" d="M364.82,409.1c-0.65,7.23-1.31,14.47-1.96,21.7c-0.26,2.91-0.62,6.03-2.56,8.21
		c-2.21,2.47-5.85,3.05-8.52,5.01c-2.16,1.6-3.56,4.02-5.52,5.86c-7.37,6.93-19.69,3.73-28.77,8.18
		c-8.34,4.09-12.23,13.61-15.43,22.33c-2.5,6.83-5.01,13.67-7.51,20.5c-2.26,6.15-4.57,12.42-8.64,17.56
		c-4.06,5.14-10.24,9.05-16.79,8.72c-7.31-0.38-15.88-5.45-21-0.22c0.29,1.54,0.57,3.08,0.86,4.61c-5.8,5.12-16.86,1.29-21.24,7.67
		c-0.91,1.32-1.36,2.92-2.3,4.22c-1.83,2.52-5.12,3.43-7.65,5.25c-3.76,2.71-5.65,7.23-8.03,11.21
		c-8.1,13.47-24.15,21.73-39.82,20.49c-4.4-0.35-8.73-1.38-13.15-1.51c-22.82-0.69-42.52,22.27-64.98,18.15"/>
	<path class="st1" d="M302.72,505.87c3.92,0.33,5.46,5.29,5.34,9.23c-0.12,3.93-0.7,8.48,2.13,11.22c2.91,2.82,7.61,1.95,11.63,1.38
		c4.02-0.57,9.2,0.08,10.43,3.94c-2.73,3.39-0.54,8.4,1.93,11.98c2.46,3.58,5.29,7.96,3.53,11.94c5.07,1.69,8.19,7.04,8.84,12.34
		c0.65,5.3-0.7,10.62-2.05,15.79c16.71,8.49,20.72,30.23,31.94,45.25"/>
	<path class="st1" d="M335.35,590.96c-3.9,3.49-7.79,6.97-11.69,10.46c-0.54,0.48-1.11,1.04-1.13,1.76
		c-0.02,0.76,0.61,1.4,0.74,2.15c0.16,0.9-0.39,1.76-1,2.44c-1.75,1.97-4.19,3.32-6.79,3.76c0.06,2.45,0.13,4.89,0.19,7.34
		c0.02,0.94,0.05,1.91-0.25,2.81c-0.35,1.06-1.11,1.93-1.8,2.8c-4.16,5.25-6.58,11.87-6.78,18.57"/>
	<path class="st1" d="M367.12,445.25c0.46,7.26,6.3,13.83,13.45,15.15c2.85,0.52,5.84,0.3,8.58,1.23s5.26,3.63,4.56,6.44
		c13.22-5.04,29.79,5.93,30.32,20.07c0.11,3.02-0.28,6.39,1.62,8.74c1.41,1.74,3.72,2.41,5.85,3.12
		c12.32,4.11,22.74,12.39,32.88,20.5c2.13,1.71,4.31,3.46,5.73,5.79c1.24,2.04,1.85,4.43,3.22,6.39c5.11,7.3,18.1,5.52,22.51,13.26"
		/>
	<path class="st1" d="M110.09,470.56c9.91-2.79,20.83-1.82,30.09,2.67c7.98,3.87,15.81,10.44,24.52,8.77
		c10.49-2.01,17.38-15.47,27.96-14.05c1.85,0.25,3.62,0.97,5.48,1.05c8.22,0.38,13.33-11.06,21.54-10.7
		c4.78,0.21,8.46,4.44,13.13,5.46c6.64,1.44,14.58-3.64,19.83,0.66c1.41,1.15,2.35,2.85,3.93,3.74c3.26,1.84,7.16-0.53,10.43-2.36
		c10.34-5.78,23.44-6.32,34.21-1.4"/>
	<path class="st1" d="M144.99,441.58c5.88,3.92,14.58,2.04,19.84,6.77c1.53,1.37,2.6,3.19,4.07,4.62
		c4.76,4.65,12.35,4.35,18.94,3.39c6.59-0.96,13.84-2.15,19.47,1.4"/>
	<path class="st1" d="M467.92,515.37c2.92-3.23,8.59-3.4,11.7-0.34c1.29,1.27,2.18,2.98,3.76,3.86c1.17,0.65,2.57,0.75,3.91,0.83
		c5.96,0.36,11.97,0.71,17.85-0.32c3.6-0.63,7.12-1.77,10.76-1.94c12.77-0.6,22.85,10.31,34.73,15.01c3.5,1.38,7.18,2.23,10.85,3.07
		c9.46,2.17,18.91,4.34,28.37,6.51"/>
	<path class="st1" d="M547.28,528.11c4.12-2.41,8.24-4.83,12.37-7.24c1.05-0.61,2.12-1.24,3.32-1.46c3.37-0.63,6.54,2.04,9.97,2.11
		c4.29,0.09,7.61-3.78,11.75-4.9c3.35-0.9,6.92,0.07,10.35-0.4c5.7-0.78,11.24-5.46,16.55-3.26"/>
</g>
<g id="Star" class="st0">
	<g class="st2">
		<g>
			<path class="st3" d="M360,68.5c0,159.05-96.71,288-216,288c119.29,0,216,128.95,216,288c0-159.05,96.71-288,216-288
				C456.71,356.5,360,227.55,360,68.5z"/>
		</g>
	</g>
	<path class="st1" d="M355.75,533.39c4.16-50,31.64-95.66,67.82-129.51c1.63-1.53,1.11-4.33-0.97-5.09
		c-3.54-1.29-7.9-0.81-11.75-0.11c-27.22,4.94-55.61,13.59-73.83,34.94c-2.27,2.66-4.39,5.56-5.54,8.89
		c-2.73,7.9,0.35,16.55,3.4,24.32l13.89,35.42c0.98,2.49,2.85,2.63,4.19,0.32c8.57-14.72,6.02-34.16,15.94-48.15
		c9.12-12.86,20.14-24.19,29.65-36.73c1.39-1.83-0.1-4.46-2.32-4.11c-16.76,2.62-32.87,9.58-46.39,20.09
		c-2.14,1.66-4.27,3.49-5.41,5.99c-1.15,2.52-1.14,5.44-0.89,8.21c0.53,5.98-0.28,13.84,4.47,17.34c3.37,2.48,5.7-5.2,7.08-9.22
		c4.02-11.73,17.16-17.22,24.23-27.28c0.38-0.54-0.02-1.3-0.67-1.27c-11.03,0.58-21.57,7.66-26.4,17.88"/>
	<path class="st1" d="M227.61,359.65c28.4-8.65,54.02-26.66,72.16-50.72c3.36-4.46,6.75-9.33,11.23-12.38
		c2.04-1.38,4.8-0.33,5.47,2.08c8.05,29.08,22.25,56.34,41.35,79.34c2.21,2.65,4.61,5.59,4.59,9.08c-0.02,3.89-3.01,7-5.85,9.58
		c-10.4,9.42-21.77,18.14-30.3,29.21c-2.54,3.3-7.37,3.3-9.92,0.01c-20.06-25.76-51.28-40.59-76.5-61.64
		c23.67-6.11,45.1-20.96,59.47-41.21c2.06-2.9,4.04-5.97,7.29-7.62c1.5-0.76,3.19-1.09,4.82-0.74c4.28,0.94,5.63,5.57,6.56,9.59
		c2.42,10.49,5.23,21.21,11.49,29.87c5.4,7.47,13.02,12.92,18.93,19.97c0.83,0.99,1.45,2.19,1.68,3.48c0.8,4.46-3.23,6.63-6.51,8.5
		c-9.76,5.56-17.48,14.81-21.36,25.55c-0.22,0.61-0.82,1-1.45,0.89c-5.31-0.94-9.15-6.97-8.6-12.59
		c0.72-7.26,7.24-13.08,13.97-14.67c2.79-0.66,5.34-2.27,6.76-4.82c3.65-6.53-3.35-11.3-8.02-15.63
		c-7.48-6.92-10.51-17.49-16.08-26.07c-0.48-0.74-1.12-1.37-1.9-1.75c-3.56-1.72-6.07,2.47-7.73,5.68
		c-4.69,9.09-13.29,15.97-23.08,18.27c-2.36,0.55-4.49,2-5.62,4.19c-2.86,5.55,2.92,9.76,7.73,12.05
		c7.42,3.53,14.83,7.05,22.25,10.58c1.08,0.51,2.24,1.04,3.42,0.84c1.1-0.18,1.99-0.96,2.83-1.71c1.98-1.77,3.95-3.54,5.93-5.31
		c3.44-3.08,7.12-6.53,6.04-12.11c-0.7-3.65-3.29-6.59-6.62-8.04c-8.42-3.68-17.12,0.76-24.92,3.73c-0.61,0.23-1.06,0.82-1.05,1.5
		c0.1,4.71,6.04,6.82,9.97,9.07c3.07,1.76,6.73,3.04,10.09,1.44c1.63-0.77,2.88-2.28,3.16-4.1c0.55-3.58-2.57-5.68-5.52-5.81
		c-2.25-0.1-4.44,0.72-6.56,1.52"/>
</g>
<g id="Wave" class="st0">
	<line class="st1" x1="59.49" y1="546.75" x2="59.48" y2="546.75"/>
	<path class="st1" d="M674.37,546.75H59.49l127.16-256.36C247.52,191.36,327.24,177.75,338,175.25c42.04-9.77,93.88,8.88,123,27.64
		c-59.01,0-85.88,38.08-85.88,95.86c0,70.06,51.48,169.47,119.99,190.17c16.82,5.08,34.79,7.83,53.45,7.83
		c29.42,0,57.11-6.83,81.31-18.87L674.37,546.75z"/>
	<path class="st1" d="M218.55,305.81c-6.39,9.11-12.78,18.21-19.17,27.32c-4.29,6.12-8.74,12.72-8.67,20.03
		c0.08,7.87,5.42,14.82,11.27,20.47c5.85,5.65,12.56,10.76,16.62,17.65c4.07,6.89,4.72,16.39-1.22,21.96
		c-2.61,2.45-6.15,3.84-9.71,4.78c-13.77,3.64-29.26,1.56-41.84,7.93c-8.8,4.46-14.84,12.42-20.56,20.11
		c-17.76,23.88-35.72,48.13-46.12,75.55c-1.15,3.03-1.99,6.92,0.61,9.03c1.03,0.84,2.4,1.18,3.73,1.47
		c32.79,7.2,66.94-3.02,100.61-2.18c4.28,0.11,8.78,0.35,12.61-1.43c8.25-3.84,9.03-14.66,6.74-23.01
		c-2.56-9.33-7.42-17.94-12.24-26.45c-5.63-9.94-11.28-19.92-18.32-29.05c-4.4-5.71-9.49-11.18-16.15-14.46
		c-2.76-1.36-6.07-2.31-8.95-1.21c-2.52,0.96-4.12,3.26-5.55,5.42c-11.04,16.66-22.08,33.31-33.12,49.97
		c-5.68,8.57-11.44,17.29-14.31,27.02c-0.5,1.68-0.91,3.46-0.51,5.16c1.2,5.21,8.4,6.5,14.1,6.59c26.66,0.42,53.37-1.5,79.65-5.73
		c1.17-0.19,2.45-0.44,3.2-1.31c0.76-0.88,0.73-2.13,0.63-3.26c-1.65-18.15-12.98-35.31-29.61-44.8c-4.51-2.57-9.7-4.66-14.92-3.99
		c-3.96,0.51-7.51,2.55-10.69,4.82c-11.65,8.32-19.89,20.04-27.89,31.53c-1.5,2.15-3.03,4.38-3.51,6.91
		c-0.47,2.53,0.39,5.47,2.75,6.77c1.69,0.93,3.77,0.88,5.72,0.8c18.87-0.77,37.74-1.53,56.61-2.3c1.84-0.07,3.78-0.18,5.34-1.1
		c2.82-1.67,3.34-5.31,3.03-8.41c-0.4-4.07-1.71-8.02-3.47-11.76c-2.64-5.61-6.41-10.89-11.71-14.51
		c-5.29-3.61-12.25-5.38-18.57-3.78c-4.97,1.26-9.15,4.43-12.53,8.07c-5.09,5.47-8.67,12.16-10.32,19.26
		c-0.34,1.46-0.54,3.17,0.5,4.3c1.05,1.15,2.9,1.22,4.52,1.19c11.19-0.18,22.37-0.44,33.56-0.77c2.07-0.06,4.41-0.24,5.73-1.73
		c0.73-0.82,1.01-1.91,1.17-2.97c0.99-6.56-2.12-13.55-7.87-17.42c-5.74-3.88-13.88-4.42-20.11-1.27c-3.97,2.01-7.29,5.97-6.6,10.14
		c0.79,4.81,6.65,7.68,11.84,7.29c5.18-0.39,13.05-1.04,14.13-5.79c0.62-2.74-3.33-4.78-5.84-6.31c-2.51-1.53-6.08-1.91-8.4-0.13
		c-2.32,1.78-2.13,5.95,0.69,6.91"/>
	<path class="st1" d="M184.65,363.36c-9.59,12.46-15.96,27.07-18.42,42.25c-0.26,1.63-0.47,3.36,0.27,4.86
		c1.57,3.16,6.17,3.44,9.89,3.25c7.16-0.36,14.32-0.71,21.42-1.61c4.27-0.54,8.89-1.48,11.6-4.62c3.77-4.38,1.96-11.14-1.88-15.47
		c-3.84-4.33-9.26-7.13-13.74-10.89c-2.24-1.89-4.49-4.14-7.48-4.51c-3.01-0.38-5.98,1.36-7.68,3.71s-2.36,5.22-2.8,8.03
		c-0.61,3.89-0.88,7.83-0.8,11.77c0.03,1.31,0.12,2.7,0.93,3.77c1.35,1.77,4.04,1.95,6.36,1.96c2.69,0.01,5.38,0.02,8.07,0.03
		c2.98,0.01,6.3-0.1,8.41-2.07c2.34-2.19,2.15-5.96,0.42-8.6c-1.73-2.64-4.62-4.39-7.48-5.95c-1.94-1.06-4.18-2.11-6.33-1.52
		c-3.07,0.83-4.14,4.62-3.17,7.47c0.7,2.07,2.33,3.99,4.57,4.57c2.24,0.59,5-0.56,5.57-2.66c0.57-2.11-1.87-4.51-4.03-3.71"/>
	<path class="st1" d="M443.25,528.24c-60.96,3.38-122.11,0.82-183.12-1.75c-3.49-0.15-7.1-0.33-10.18-1.86
		c-4.58-2.28-7-7.03-9.12-11.46c-6.94-14.54-13.89-29.07-20.83-43.61c-4.99-10.44-9.98-20.88-14.96-31.32
		c-0.63-1.33-1.28-2.77-0.94-4.19c0.41-1.7,2.09-2.83,3.64-3.78c10.32-6.37,20.64-12.73,30.96-19.1c1.72-1.06,3.56-2.16,5.63-2.24
		c2.33-0.09,4.47,1.13,6.31,2.47c9.92,7.17,15.52,18.22,22.14,28.18c6.13,9.23,13.44,17.84,22.2,24.99
		c18.48,15.08,42.72,23.13,60.48,38.96c1.85,1.65,3.72,3.56,3.99,5.93c0.33,2.85-1.85,5.54-4.56,6.88c-2.71,1.34-5.86,1.61-8.92,1.8
		c-26.08,1.63-52.26-0.25-78.32-2.14c-2.7-0.2-5.49-0.41-7.88-1.62c-2.38-1.2-4.26-3.68-3.78-6.17c0.91-4.75,8.04-5.01,13.11-4.14
		c18.64,3.2,37.5,5.3,56.43,6.26c4.42,0.23,10.22-0.55,11.05-4.62c0.56-2.74-1.72-5.28-4.19-6.84c-9.79-6.17-22.76-3.67-34.52-2.71
		c-15.09,1.23-30.45-0.56-44.76-5.21c-2.07-0.67-4.24-1.48-5.55-3.13c-1.31-1.65-1.28-4.38,0.6-5.43c1.07-0.6,2.41-0.51,3.65-0.41
		c9.12,0.77,18.23,1.54,27.35,2.31c4.47,0.38,10.25,0.02,11.7-3.96c1.07-2.94-1.07-5.98-3.09-8.45
		c-13.22-16.07-26.47-32.12-39.74-48.15c-1.16-1.4-2.48-2.9-4.33-3.27c-1.67-0.33-3.36,0.34-4.91,0.99
		c-7.91,3.33-16.85,7.84-18.29,15.85c-0.98,5.45,1.95,10.78,4.93,15.55c3.1,4.96,6.36,9.83,9.78,14.6c2.16,3.01,4.59,6.15,8.21,7.46
		c2.81,1.02,5.94,0.78,8.95,0.52c7.2-0.61,16.14,2.6,21.6-1.84c2.31-1.88-1.33-5.46-3.23-7.69c-8.71-10.21-17.43-20.43-26.14-30.64
		c-2.48-2.91-5.79-6.13-9.71-5.48c-3.24,0.54-5.36,3.76-5.48,6.84c-0.12,3.08,1.29,6.01,2.82,8.74c4.22,7.55,9.54,14.56,15.76,20.78
		c1.61,1.61,3.74,3.3,6.03,2.8c2.32-0.5,3.48-3.14,3.04-5.33c-0.44-2.19-2.01-4-3.54-5.71c-5.46-6.13-10.91-12.25-16.37-18.38"/>
	<line class="st1" x1="59.49" y1="546.76" x2="59.49" y2="546.75"/>
</g>
<g id="Layer_10">
	<path class="st4" d="M719.47,574.2H1.05l148.57-299.53c71.12-115.71,164.26-131.61,176.84-134.53
		c49.11-11.42,109.69,10.38,143.71,32.29c-68.95,0-100.34,44.49-100.34,112c0,81.86,60.15,198.01,140.2,222.19
		c19.65,5.94,40.65,9.15,62.45,9.15c34.37,0,66.73-7.98,95-22.05L719.47,574.2z"/>
</g>
<g id="Layer_11" class="st0">
	<g class="st2">
		<g>
			<path class="st5" d="M356.77,1.73c0,198.31-120.58,359.07-269.31,359.07c148.73,0,269.31,160.77,269.31,359.07
				c0-198.31,120.58-359.07,269.31-359.07C477.35,360.8,356.77,200.03,356.77,1.73z"/>
		</g>
	</g>
</g>
<g id="Layer_12" class="st0">
	<path class="st6" d="M697.94,352.19c0,21.37-18.79,38.69-41.96,38.69H107.05c-23.17,0-41.96-17.33-41.96-38.69
		c0-21.37,18.79-38.69,41.96-38.69c2.52,0,4.99,0.2,7.39,0.6c-4.78-12.27-7.39-25.51-7.39-39.3c0-61.42,51.71-111.7,117.19-115.8
		C243.56,70.55,328.29,3.95,429.88,3.95c115.86,0,209.78,86.62,209.78,193.47c0,20.82-3.57,40.88-10.16,59.68
		c16.29,14.1,26.48,34.16,26.48,56.41C679.15,313.5,697.94,330.83,697.94,352.19z"/>
	<path class="st7" d="M388,408.1c-0.88,9.72-1.76,19.44-2.64,29.16c-0.35,3.9-0.83,8.1-3.44,11.03c-2.96,3.33-7.86,4.09-11.45,6.74
		c-2.91,2.14-4.78,5.4-7.42,7.87c-9.9,9.31-26.45,5.01-38.66,11c-11.2,5.49-16.44,18.29-20.73,30c-3.37,9.18-6.73,18.36-10.1,27.54
		c-3.03,8.27-6.15,16.69-11.61,23.59s-13.76,12.17-22.56,11.71c-9.82-0.51-21.34-7.32-28.22-0.29c0.39,2.07,0.77,4.13,1.16,6.2
		c-7.79,6.88-22.66,1.74-28.54,10.3c-1.22,1.78-1.82,3.93-3.09,5.67c-2.46,3.39-6.88,4.61-10.28,7.06
		c-5.06,3.63-7.59,9.72-10.8,15.05c-10.89,18.1-32.45,29.19-53.5,27.52c-5.91-0.47-11.74-1.85-17.66-2.03
		c-30.67-0.93-57.13,29.92-87.31,24.39"/>
	<path class="st7" d="M304.56,538.11c5.27,0.44,7.34,7.11,7.18,12.39c-0.16,5.28-0.94,11.4,2.86,15.07
		c3.91,3.79,10.22,2.63,15.62,1.86c5.39-0.77,12.37,0.11,14.01,5.3c-3.66,4.55-0.72,11.28,2.59,16.1c3.31,4.82,7.11,10.7,4.74,16.04
		c6.81,2.27,11,9.46,11.87,16.59s-0.95,14.27-2.75,21.21c22.45,11.41,27.83,40.62,42.92,60.79"/>
	<path class="st7" d="M348.4,652.44c-5.24,4.69-10.47,9.37-15.71,14.06c-0.72,0.64-1.5,1.4-1.52,2.37c-0.03,1.03,0.81,1.88,1,2.89
		c0.22,1.2-0.52,2.37-1.34,3.28c-2.35,2.65-5.63,4.46-9.12,5.05c0.08,3.29,0.17,6.57,0.25,9.86c0.03,1.27,0.06,2.57-0.34,3.77
		c-0.47,1.42-1.49,2.59-2.42,3.77c-5.6,7.06-8.84,15.94-9.12,24.95"/>
	<path class="st7" d="M391.08,456.67c0.62,9.75,8.46,18.59,18.07,20.36c3.82,0.7,7.84,0.4,11.53,1.65s7.07,4.88,6.13,8.66
		c17.76-6.77,40.03,7.96,40.74,26.96c0.15,4.06-0.38,8.59,2.18,11.74c1.9,2.34,5,3.24,7.86,4.2c16.55,5.53,30.55,16.64,44.17,27.54
		c2.86,2.29,5.79,4.65,7.69,7.78c1.67,2.74,2.48,5.96,4.32,8.59c6.86,9.81,24.32,7.41,30.24,17.82"/>
	<path class="st7" d="M45.74,490.68c13.31-3.74,27.98-2.44,40.43,3.59c10.72,5.2,21.24,14.03,32.94,11.79
		c14.09-2.7,23.35-20.78,37.57-18.87c2.48,0.33,4.86,1.3,7.36,1.42c11.04,0.51,17.9-14.86,28.95-14.37
		c6.42,0.28,11.37,5.97,17.65,7.34c8.92,1.94,19.58-4.89,26.65,0.89c1.89,1.55,3.16,3.83,5.29,5.02c4.38,2.47,9.63-0.72,14.02-3.17
		c13.89-7.77,31.49-8.49,45.97-1.88"/>
	<path class="st7" d="M92.64,451.74c7.9,5.27,19.59,2.74,26.65,9.09c2.05,1.84,3.49,4.28,5.46,6.21c6.39,6.25,16.59,5.84,25.44,4.55
		s18.59-2.88,26.16,1.88"/>
	<path class="st7" d="M526.51,550.88c3.93-4.34,11.54-4.56,15.71-0.46c1.73,1.7,2.93,4.01,5.05,5.19c1.58,0.88,3.45,1.01,5.25,1.11
		c8,0.48,16.09,0.95,23.98-0.43c4.83-0.84,9.56-2.38,14.46-2.61c17.15-0.81,30.7,13.85,46.67,20.17c4.7,1.86,9.65,3,14.57,4.13
		c12.7,2.92,25.41,5.83,38.11,8.75"/>
	<path class="st7" d="M633.13,567.99c5.54-3.24,11.08-6.49,16.61-9.73c1.41-0.83,2.85-1.66,4.46-1.97
		c4.53-0.85,8.78,2.74,13.39,2.83c5.76,0.12,10.22-5.08,15.78-6.58c4.5-1.21,9.3,0.1,13.91-0.54c7.65-1.05,15.1-7.33,22.24-4.38"/>
</g>
<g id="Layer_13" class="st0">
	<path class="st8" d="M717.26,473.46c0,24.26-21.33,43.93-47.63,43.93H46.4c-26.3,0-47.63-19.67-47.63-43.93
		c0-24.26,21.33-43.93,47.63-43.93c2.86,0,5.66,0.23,8.39,0.68c-5.43-13.94-8.39-28.96-8.39-44.61
		c0-69.73,58.71-126.81,133.05-131.48C201.39,153.7,297.58,78.08,412.92,78.08c131.54,0,238.17,98.34,238.17,219.65
		c0,23.64-4.05,46.41-11.54,67.75c18.5,16.01,30.06,38.78,30.06,64.04C695.93,429.52,717.26,449.2,717.26,473.46z"/>
	<line class="st9" x1="36.7" y1="638.82" x2="103.6" y2="571.92"/>
	<line class="st9" x1="103.6" y1="638.82" x2="170.5" y2="571.92"/>
	<line class="st9" x1="170.5" y1="638.82" x2="237.4" y2="571.92"/>
	<line class="st9" x1="237.4" y1="638.82" x2="304.3" y2="571.92"/>
	<line class="st9" x1="304.3" y1="638.82" x2="371.2" y2="571.92"/>
	<line class="st9" x1="371.2" y1="638.82" x2="438.09" y2="571.92"/>
	<line class="st9" x1="438.09" y1="638.82" x2="504.99" y2="571.92"/>
	<line class="st9" x1="504.99" y1="638.82" x2="571.89" y2="571.92"/>
	<line class="st9" x1="571.89" y1="638.82" x2="638.79" y2="571.92"/>
</g>
<g id="Layer_14" class="st0">
	<path class="st10" d="M719.47,550.69c0,26.3-21.33,47.63-47.63,47.63H48.62c-26.3,0-47.63-21.33-47.63-47.63
		c0-26.3,21.33-47.63,47.63-47.63c2.86,0,5.66,0.25,8.39,0.74c-5.43-15.11-8.39-31.4-8.39-48.38c0-75.61,58.71-137.51,133.05-142.56
		C203.6,203.98,299.8,121.98,415.14,121.98c131.54,0,238.17,106.64,238.17,238.17c0,25.63-4.05,50.32-11.54,73.46
		c18.5,17.36,30.06,42.05,30.06,69.44C698.14,503.06,719.47,524.39,719.47,550.69z"/>
</g>
<g id="Layer_15" class="st0">
	<path class="st11" d="M626.29,368.77c0,151.24-122.61,273.86-273.86,273.86c-65.4,0-125.45-22.94-172.54-61.2
		c59.63-54.38,129.91-121.6,203.92-195.62c67.89-67.88,130.06-132.63,181.85-188.89C603.58,243.91,626.29,303.69,626.29,368.77z"/>
	<path class="st11" d="M565.66,196.92c-51.79,56.25-113.96,121-181.85,188.89c-74.02,74.02-144.3,141.24-203.92,195.62
		c-14.72-11.94-28.17-25.4-40.12-40.12c-38.26-47.09-61.2-107.13-61.2-172.54c0-151.24,122.61-273.86,273.86-273.86
		c65.09,0,124.87,22.71,171.85,60.63C539.5,167.81,553.39,181.7,565.66,196.92z"/>
	<path class="st12" d="M179.89,581.43C80.78,671.84,11.14,726.76,2.79,718.41c-8.36-8.34,46.57-77.99,136.98-177.09
		C151.72,556.03,165.17,569.48,179.89,581.43z"/>
	<path class="st12" d="M565.66,196.92c-12.27-15.23-26.16-29.11-41.38-41.38C631.34,56.99,707.65-3.98,716.42,4.78
		C725.18,13.55,664.21,89.86,565.66,196.92z"/>
</g>
<g id="Layer_16" class="st0">
	<g class="st2">
		<g>
			<path class="st13" d="M322.79,358.76c0-156.69,122.02-284.86,276.22-294.73C539.95,22,467.71-2.71,389.7-2.71
				c-199.63,0-361.46,161.83-361.46,361.46S190.07,720.22,389.7,720.22c78.01,0,150.25-24.71,209.31-66.74
				C444.81,643.62,322.79,515.45,322.79,358.76z"/>
		</g>
	</g>
</g>
<g id="Layer_17" class="st0">
	<ellipse class="st14" cx="361.5" cy="358.82" rx="231.64" ry="235.74"/>
	<path class="st14" d="M358.26-0.79l-31.64,73.72c-1,2.33,0.71,4.93,3.25,4.93h63.27c2.54,0,4.25-2.6,3.25-4.93L364.75-0.79
		C363.53-3.65,359.48-3.65,358.26-0.79z"/>
	<path class="st14" d="M364.75,718.43l31.64-73.72c1-2.33-0.71-4.93-3.25-4.93h-63.27c-2.54,0-4.25,2.6-3.25,4.93l31.64,73.72
		C359.48,721.28,363.53,721.28,364.75,718.43z"/>
	<path class="st14" d="M2.92,370.42l72.48,32.21c2.34,1.04,4.97-0.67,4.97-3.23v-64.43c0-2.56-2.63-4.27-4.97-3.23L2.92,363.96
		C0.12,365.2,0.12,369.18,2.92,370.42z"/>
	<path class="st14" d="M720.09,355.59l-72.48-32.21c-2.34-1.04-4.97,0.67-4.97,3.23v64.43c0,2.56,2.63,4.27,4.97,3.23l72.48-32.21
		C722.89,360.8,722.89,356.83,720.09,355.59z"/>
	<path class="st14" d="M609.11,102.18l-73.61,29.37c-2.35,0.94-2.98,3.96-1.21,5.76l44.75,45.54c1.8,1.83,4.9,1.19,5.82-1.21
		l28.86-74.92C614.83,103.86,611.98,101.04,609.11,102.18z"/>
	<path class="st14" d="M113.9,615.45l73.61-29.37c2.35-0.94,2.98-3.96,1.21-5.76l-44.75-45.54c-1.8-1.83-4.9-1.19-5.82,1.21
		l-28.86,74.92C108.18,613.78,111.03,616.59,113.9,615.45z"/>
	<path class="st14" d="M99.9,109.02l28.86,74.92c0.92,2.4,4.02,3.04,5.82,1.21l44.75-45.54c1.77-1.8,1.13-4.82-1.21-5.76
		l-73.61-29.37C101.64,103.32,98.79,106.14,99.9,109.02z"/>
	<path class="st14" d="M617.29,614.53l-28.86-74.92c-0.92-2.4-4.02-3.04-5.82-1.21l-44.75,45.54c-1.77,1.8-1.13,4.82,1.21,5.76
		l73.61,29.37C615.55,620.23,618.4,617.41,617.29,614.53z"/>
</g>
</svg>
